<svg width="26" height="34" viewBox="0 0 26 34" fill="none" xmlns="http://www.w3.org/2000/svg">
<path d="M9.75 4.38253e-07C9.07763 -0.00034527 8.4217 0.203847 7.8726 0.584435C7.32351 0.965023 6.90829 1.50327 6.68417 2.125H3.25C2.38805 2.125 1.5614 2.46083 0.951903 3.0586C0.342409 3.65637 0 4.46712 0 5.3125V30.8125C0 31.6579 0.342409 32.4686 0.951903 33.0664C1.5614 33.6642 2.38805 34 3.25 34H22.75C23.612 34 24.4386 33.6642 25.0481 33.0664C25.6576 32.4686 26 31.6579 26 30.8125V5.3125C26 4.46712 25.6576 3.65637 25.0481 3.0586C24.4386 2.46083 23.612 2.125 22.75 2.125H19.3158C19.0917 1.50327 18.6765 0.965023 18.1274 0.584435C17.5783 0.203847 16.9224 -0.00034527 16.25 4.38253e-07H9.75ZM8.66667 3.1875C8.66667 2.90571 8.7808 2.63546 8.98397 2.4362C9.18713 2.23694 9.46268 2.125 9.75 2.125H16.25C16.5373 2.125 16.8129 2.23694 17.016 2.4362C17.2192 2.63546 17.3333 2.90571 17.3333 3.1875C17.3333 3.46929 17.2192 3.73954 17.016 3.9388C16.8129 4.13806 16.5373 4.25 16.25 4.25H9.75C9.46268 4.25 9.18713 4.13806 8.98397 3.9388C8.7808 3.73954 8.66667 3.46929 8.66667 3.1875ZM11.6003 12.4398L7.80867 16.1585C7.6113 16.3518 7.34549 16.4631 7.0666 16.469C6.78771 16.4749 6.51724 16.3751 6.3115 16.1904L4.6865 14.7347C4.57608 14.6422 4.48576 14.5288 4.42093 14.4013C4.3561 14.2738 4.31807 14.1348 4.30911 13.9926C4.30015 13.8504 4.32044 13.7079 4.36877 13.5736C4.4171 13.4392 4.49249 13.3158 4.59045 13.2106C4.68841 13.1054 4.80694 13.0206 4.93899 12.9612C5.07104 12.9018 5.21392 12.8691 5.35912 12.865C5.50432 12.8609 5.64888 12.8855 5.7842 12.9373C5.91953 12.9891 6.04285 13.067 6.14683 13.1665L7.007 13.9357L10.0663 10.9352C10.1671 10.8365 10.2866 10.7581 10.4182 10.7046C10.5498 10.6512 10.6909 10.6237 10.8333 10.6237C10.9758 10.6237 11.1168 10.6512 11.2484 10.7046C11.38 10.7581 11.4996 10.8365 11.6003 10.9352C11.7011 11.034 11.781 11.1513 11.8355 11.2804C11.89 11.4095 11.918 11.5478 11.918 11.6875C11.918 11.8272 11.89 11.9655 11.8355 12.0946C11.781 12.2237 11.7011 12.341 11.6003 12.4398ZM11.6003 21.5602C11.7012 21.6589 11.7813 21.7762 11.8359 21.9053C11.8905 22.0344 11.9186 22.1727 11.9186 22.3125C11.9186 22.4523 11.8905 22.5906 11.8359 22.7197C11.7813 22.8488 11.7012 22.9661 11.6003 23.0648L7.80867 26.7835C7.6113 26.9768 7.34549 27.0881 7.0666 27.094C6.78771 27.0999 6.51724 27.0001 6.3115 26.8154L4.6865 25.3598C4.48524 25.1672 4.36819 24.9055 4.36007 24.6298C4.35196 24.3542 4.45342 24.0863 4.64302 23.8827C4.83262 23.6791 5.09551 23.5557 5.37612 23.5387C5.65674 23.5217 5.93311 23.6123 6.14683 23.7915L7.007 24.5629L10.0663 21.5602C10.167 21.4613 10.2865 21.3828 10.4181 21.3292C10.5497 21.2757 10.6908 21.2481 10.8333 21.2481C10.9758 21.2481 11.1169 21.2757 11.2485 21.3292C11.3802 21.3828 11.4997 21.4613 11.6003 21.5602ZM15.1667 22.8438H20.5833C20.8707 22.8438 21.1462 22.9557 21.3494 23.1549C21.5525 23.3542 21.6667 23.6245 21.6667 23.9062C21.6667 24.188 21.5525 24.4583 21.3494 24.6576C21.1462 24.8568 20.8707 24.9688 20.5833 24.9688H15.1667C14.8793 24.9688 14.6038 24.8568 14.4006 24.6576C14.1975 24.4583 14.0833 24.188 14.0833 23.9062C14.0833 23.6245 14.1975 23.3542 14.4006 23.1549C14.6038 22.9557 14.8793 22.8438 15.1667 22.8438ZM14.0833 13.2812C14.0833 12.9995 14.1975 12.7292 14.4006 12.5299C14.6038 12.3307 14.8793 12.2188 15.1667 12.2188H20.5833C20.8707 12.2188 21.1462 12.3307 21.3494 12.5299C21.5525 12.7292 21.6667 12.9995 21.6667 13.2812C21.6667 13.563 21.5525 13.8333 21.3494 14.0326C21.1462 14.2318 20.8707 14.3438 20.5833 14.3438H15.1667C14.8793 14.3438 14.6038 14.2318 14.4006 14.0326C14.1975 13.8333 14.0833 13.563 14.0833 13.2812Z" fill="white"/>
</svg>
