<svg width="36" height="36" viewBox="0 0 36 36" fill="none" xmlns="http://www.w3.org/2000/svg">
<path d="M18.3911 7.12124C18.2865 7.0211 18.1472 6.96521 18.0023 6.96521C17.8574 6.96521 17.7182 7.0211 17.6135 7.12124L4.66895 19.4871C4.61397 19.5397 4.57024 19.6029 4.54038 19.6729C4.51053 19.7428 4.49519 19.8181 4.49527 19.8942L4.49316 31.5C4.49316 32.0967 4.73022 32.669 5.15217 33.091C5.57413 33.5129 6.14643 33.75 6.74316 33.75H13.5002C13.7986 33.75 14.0847 33.6315 14.2957 33.4205C14.5067 33.2095 14.6252 32.9234 14.6252 32.625V23.0625C14.6252 22.9133 14.6845 22.7702 14.7899 22.6647C14.8954 22.5593 15.0385 22.5 15.1877 22.5H20.8127C20.9619 22.5 21.105 22.5593 21.2104 22.6647C21.3159 22.7702 21.3752 22.9133 21.3752 23.0625V32.625C21.3752 32.9234 21.4937 33.2095 21.7047 33.4205C21.9157 33.6315 22.2018 33.75 22.5002 33.75H29.2544C29.8512 33.75 30.4234 33.5129 30.8454 33.091C31.2674 32.669 31.5044 32.0967 31.5044 31.5V19.8942C31.5045 19.8181 31.4892 19.7428 31.4593 19.6729C31.4295 19.6029 31.3857 19.5397 31.3307 19.4871L18.3911 7.12124Z" fill="white"/>
<path d="M34.5171 17.1668L29.2578 12.1352V4.5C29.2578 4.20163 29.1392 3.91548 28.9283 3.7045C28.7173 3.49353 28.4311 3.375 28.1328 3.375H24.7578C24.4594 3.375 24.1732 3.49353 23.9623 3.7045C23.7513 3.91548 23.6328 4.20163 23.6328 4.5V6.75L19.5603 2.85609C19.1792 2.47078 18.6124 2.25 18 2.25C17.3897 2.25 16.8244 2.47078 16.4433 2.8568L1.48784 17.1654C1.0505 17.5873 0.995652 18.2812 1.39362 18.7383C1.49356 18.8536 1.61592 18.9475 1.75327 19.014C1.89061 19.0806 2.04007 19.1185 2.19254 19.1255C2.34501 19.1325 2.4973 19.1083 2.64015 19.0546C2.783 19.0008 2.91342 18.9186 3.02346 18.8128L17.6133 4.87125C17.718 4.77111 17.8573 4.71522 18.0021 4.71522C18.147 4.71522 18.2863 4.77111 18.391 4.87125L32.9822 18.8128C33.1971 19.0189 33.485 19.1314 33.7828 19.1256C34.0805 19.1198 34.3638 18.9962 34.5706 18.7819C35.0023 18.3347 34.9664 17.5964 34.5171 17.1668Z" fill="white"/>
</svg>
