<svg width="1920" height="430" viewBox="0 0 1920 430" fill="none" xmlns="http://www.w3.org/2000/svg">
<g clip-path="url(#clip0_287_419)">
<rect width="1920" height="430" rx="10" fill="url(#paint0_linear_287_419)"/>
<rect x="1720.11" y="122.159" width="123.841" height="174.497" rx="45" transform="rotate(90 1720.11 122.159)" stroke="url(#paint1_linear_287_419)" stroke-opacity="0.5" stroke-width="2"/>
<path d="M1700.04 183.523L1692.79 183.523L1682.25 178.512L1676.33 183.523L1671.72 183.523L1663.16 177.398L1655.91 171.273L1648.67 164.035L1645.37 160.137C1645.37 160.137 1646.67 157.58 1648.01 156.239C1649.3 154.941 1651.96 152.898 1651.96 152.898C1651.96 152.898 1650.23 150.692 1649.33 149.001C1648.42 147.309 1647.59 146.313 1646.69 142.876C1645.37 137.864 1645.37 136.751 1645.37 136.751L1632.86 136.751M1632.86 136.751L1632.86 123.387M1632.86 136.751L1621.01 136.751" stroke="url(#paint2_linear_287_419)" stroke-opacity="0.5" stroke-width="2"/>
<path d="M1692.79 183.523L1682.25 188.534L1676.33 183.523M1671.72 183.523L1663.16 190.762L1655.91 196.887L1648.67 204.125L1645.37 208.023C1645.37 208.023 1646.67 210.58 1648.01 211.921C1649.3 213.219 1651.96 215.262 1651.96 215.262C1651.96 215.262 1650.23 217.468 1649.33 219.159C1648.42 220.851 1647.59 221.847 1646.69 225.284C1645.37 230.296 1645.37 231.409 1645.37 231.409L1632.86 231.409M1632.86 231.409L1632.86 244.773M1632.86 231.409L1621.01 231.409" stroke="url(#paint3_linear_287_419)" stroke-opacity="0.5" stroke-width="2"/>
<path d="M1565.69 184.636L1572.93 184.636L1583.47 189.648L1589.4 184.636L1594.01 184.636L1602.57 190.761L1609.81 196.886L1617.06 204.125L1620.35 208.023C1620.35 208.023 1619.05 210.58 1617.71 211.92C1616.42 213.219 1613.76 215.261 1613.76 215.261C1613.76 215.261 1615.49 217.467 1616.4 219.159C1617.31 220.851 1618.13 221.846 1619.03 225.284C1620.35 230.295 1620.35 231.409 1620.35 231.409L1632.86 231.409L1644.72 231.409" stroke="url(#paint4_linear_287_419)" stroke-opacity="0.5" stroke-width="2"/>
<path d="M1572.93 184.636L1583.47 179.625L1589.4 184.636M1594.01 184.636L1602.57 177.397L1609.81 171.272L1617.06 164.034L1620.35 160.136C1620.35 160.136 1619.05 157.579 1617.71 156.238C1616.42 154.94 1613.76 152.897 1613.76 152.897C1613.76 152.897 1615.49 150.692 1616.4 149C1617.31 147.308 1618.13 146.313 1619.03 142.875C1620.35 137.863 1620.35 136.75 1620.35 136.75L1632.86 136.75L1644.72 136.75" stroke="url(#paint5_linear_287_419)" stroke-opacity="0.5" stroke-width="2"/>
<rect x="1919" y="122.159" width="123.841" height="174.497" rx="45" transform="rotate(90 1919 122.159)" stroke="url(#paint6_linear_287_419)" stroke-opacity="0.5" stroke-width="2"/>
<path d="M1898.92 183.523L1891.68 183.523L1881.14 178.512L1875.22 183.523L1870.61 183.523L1862.04 177.398L1854.8 171.273L1847.56 164.034L1844.26 160.137C1844.26 160.137 1845.56 157.579 1846.9 156.239C1848.19 154.94 1850.85 152.898 1850.85 152.898C1850.85 152.898 1849.12 150.692 1848.21 149C1847.31 147.308 1846.48 146.313 1845.58 142.875C1844.26 137.864 1844.26 136.75 1844.26 136.75L1831.75 136.75M1831.75 136.75L1831.75 123.387M1831.75 136.75L1819.9 136.75" stroke="url(#paint7_linear_287_419)" stroke-opacity="0.5" stroke-width="2"/>
<path d="M1891.68 183.523L1881.14 188.534L1875.21 183.523M1870.6 183.523L1862.04 190.761L1854.8 196.886L1847.55 204.125L1844.26 208.023C1844.26 208.023 1845.56 210.58 1846.9 211.92C1848.19 213.219 1850.85 215.261 1850.85 215.261C1850.85 215.261 1849.12 217.467 1848.21 219.159C1847.31 220.851 1846.48 221.846 1845.58 225.284C1844.26 230.295 1844.26 231.409 1844.26 231.409L1831.75 231.409M1831.75 231.409L1831.75 244.773M1831.75 231.409L1819.89 231.409" stroke="url(#paint8_linear_287_419)" stroke-opacity="0.5" stroke-width="2"/>
<path d="M1764.58 184.636L1771.82 184.636L1782.36 189.648L1788.28 184.636L1792.89 184.636L1801.46 190.761L1808.7 196.886L1815.94 204.125L1819.24 208.023C1819.24 208.023 1817.94 210.58 1816.6 211.92C1815.31 213.219 1812.65 215.261 1812.65 215.261C1812.65 215.261 1814.38 217.467 1815.29 219.159C1816.19 220.851 1817.02 221.846 1817.92 225.284C1819.24 230.295 1819.24 231.409 1819.24 231.409L1831.75 231.409L1843.6 231.409" stroke="url(#paint9_linear_287_419)" stroke-opacity="0.5" stroke-width="2"/>
<path d="M1771.82 184.636L1782.36 179.625L1788.29 184.636M1792.9 184.636L1801.46 177.397L1808.7 171.272L1815.95 164.034L1819.24 160.136C1819.24 160.136 1817.94 157.579 1816.6 156.238C1815.31 154.94 1812.65 152.897 1812.65 152.897C1812.65 152.897 1814.38 150.692 1815.29 149C1816.19 147.308 1817.02 146.313 1817.92 142.875C1819.24 137.863 1819.24 136.75 1819.24 136.75L1831.75 136.75L1843.61 136.75" stroke="url(#paint10_linear_287_419)" stroke-opacity="0.5" stroke-width="2"/>
<rect x="1919" y="-45.9995" width="123.841" height="174.497" rx="45" transform="rotate(90 1919 -45.9995)" stroke="url(#paint11_linear_287_419)" stroke-opacity="0.5" stroke-width="2"/>
<path d="M1898.92 15.3638L1891.68 15.3638L1881.14 10.3525L1875.22 15.3638L1870.61 15.3638L1862.04 9.23884L1854.8 3.11385L1847.56 -4.12478L1844.26 -8.0225C1844.26 -8.0225 1845.56 -10.5799 1846.9 -11.9202C1848.19 -13.2187 1850.85 -15.2611 1850.85 -15.2611C1850.85 -15.2611 1849.12 -17.467 1848.21 -19.1589C1847.31 -20.8507 1846.48 -21.8461 1845.58 -25.2838C1844.26 -30.2952 1844.26 -31.4088 1844.26 -31.4088L1831.75 -31.4088M1831.75 -31.4088L1831.75 -44.7725M1831.75 -31.4088L1819.9 -31.4088" stroke="url(#paint12_linear_287_419)" stroke-opacity="0.5" stroke-width="2"/>
<path d="M1891.68 15.3636L1881.14 20.3749L1875.21 15.3636M1870.6 15.3636L1862.04 22.6022L1854.8 28.7272L1847.55 35.9658L1844.26 39.8636C1844.26 39.8636 1845.56 42.4209 1846.9 43.7613C1848.19 45.0597 1850.85 47.1022 1850.85 47.1022C1850.85 47.1022 1849.12 49.3081 1848.21 50.9999C1847.31 52.6917 1846.48 53.6871 1845.58 57.1249C1844.26 62.1363 1844.26 63.2499 1844.26 63.2499L1831.75 63.2499M1831.75 63.2499L1831.75 76.6135M1831.75 63.2499L1819.89 63.2499" stroke="url(#paint13_linear_287_419)" stroke-opacity="0.5" stroke-width="2"/>
<path d="M1764.58 16.4778L1771.82 16.4778L1782.36 21.4892L1788.28 16.4778L1792.89 16.4778L1801.46 22.6028L1808.7 28.7278L1815.94 35.9664L1819.24 39.8642C1819.24 39.8642 1817.94 42.4215 1816.6 43.7619C1815.31 45.0603 1812.65 47.1028 1812.65 47.1028C1812.65 47.1028 1814.38 49.3087 1815.29 51.0005C1816.19 52.6923 1817.02 53.6877 1817.92 57.1255C1819.24 62.1369 1819.24 63.2505 1819.24 63.2505L1831.75 63.2505L1843.6 63.2505" stroke="url(#paint14_linear_287_419)" stroke-opacity="0.5" stroke-width="2"/>
<path d="M1771.82 16.4781L1782.36 11.4668L1788.28 16.4781M1792.89 16.4781L1801.46 9.23948L1808.7 3.11449L1815.94 -4.12414L1819.24 -8.02186C1819.24 -8.02186 1817.94 -10.5792 1816.6 -11.9196C1815.31 -13.218 1812.65 -15.2605 1812.65 -15.2605C1812.65 -15.2605 1814.38 -17.4664 1815.29 -19.1582C1816.19 -20.85 1817.02 -21.8454 1817.92 -25.2832C1819.24 -30.2946 1819.24 -31.4082 1819.24 -31.4082L1831.75 -31.4082L1843.6 -31.4082" stroke="url(#paint15_linear_287_419)" stroke-opacity="0.5" stroke-width="2"/>
<rect x="1720.11" y="-46" width="123.841" height="174.497" rx="45" transform="rotate(90 1720.11 -46)" stroke="url(#paint16_linear_287_419)" stroke-opacity="0.5" stroke-width="2"/>
<path d="M1700.04 15.3641L1692.79 15.3641L1682.25 10.3527L1676.33 15.3641L1671.72 15.3641L1663.16 9.23909L1655.91 3.11409L1648.67 -4.12453L1645.37 -8.02226C1645.37 -8.02226 1646.67 -10.5796 1648.01 -11.92C1649.3 -13.2184 1651.96 -15.2609 1651.96 -15.2609C1651.96 -15.2609 1650.23 -17.4668 1649.33 -19.1586C1648.42 -20.8504 1647.59 -21.8458 1646.69 -25.2836C1645.37 -30.295 1645.37 -31.4086 1645.37 -31.4086L1632.86 -31.4086M1632.86 -31.4086L1632.86 -44.7722M1632.86 -31.4086L1621.01 -31.4086" stroke="url(#paint17_linear_287_419)" stroke-opacity="0.5" stroke-width="2"/>
<path d="M1692.79 15.3638L1682.25 20.3752L1676.33 15.3638M1671.72 15.3638L1663.16 22.6025L1655.91 28.7274L1648.67 35.9661L1645.37 39.8638C1645.37 39.8638 1646.67 42.4212 1648.01 43.7615C1649.3 45.06 1651.96 47.1024 1651.96 47.1024C1651.96 47.1024 1650.23 49.3083 1649.33 51.0002C1648.42 52.692 1647.59 53.6874 1646.69 57.1251C1645.37 62.1365 1645.37 63.2501 1645.37 63.2501L1632.86 63.2501M1632.86 63.2501L1632.86 76.6138M1632.86 63.2501L1621.01 63.2501" stroke="url(#paint18_linear_287_419)" stroke-opacity="0.5" stroke-width="2"/>
<path d="M1565.69 16.4776L1572.93 16.4776L1583.47 21.4889L1589.4 16.4776L1594.01 16.4776L1602.57 22.6026L1609.81 28.7276L1617.06 35.9662L1620.35 39.8639C1620.35 39.8639 1619.05 42.4213 1617.71 43.7616C1616.42 45.0601 1613.76 47.1025 1613.76 47.1025C1613.76 47.1025 1615.49 49.3084 1616.4 51.0003C1617.31 52.6921 1618.13 53.6875 1619.03 57.1253C1620.35 62.1366 1620.35 63.2503 1620.35 63.2503L1632.86 63.2503L1644.72 63.2503" stroke="url(#paint19_linear_287_419)" stroke-opacity="0.5" stroke-width="2"/>
<path d="M1572.93 16.4779L1583.47 11.4665L1589.4 16.4779M1594.01 16.4779L1602.57 9.23924L1609.81 3.11425L1617.06 -4.12438L1620.35 -8.0221C1620.35 -8.0221 1619.05 -10.5795 1617.71 -11.9198C1616.42 -13.2183 1613.76 -15.2607 1613.76 -15.2607C1613.76 -15.2607 1615.49 -17.4666 1616.4 -19.1585C1617.31 -20.8503 1618.13 -21.8457 1619.03 -25.2834C1620.35 -30.2948 1620.35 -31.4084 1620.35 -31.4084L1632.86 -31.4084L1644.72 -31.4084" stroke="url(#paint20_linear_287_419)" stroke-opacity="0.5" stroke-width="2"/>
<rect x="1657.57" y="26.387" width="146.837" height="147.227" rx="45" stroke="url(#paint21_linear_287_419)" stroke-opacity="0.5" stroke-width="2"/>
<path d="M1730.33 43.2056L1730.33 49.3306L1724.41 58.2396L1730.33 63.251L1730.33 67.1487L1723.09 74.3874L1715.84 80.5123L1707.28 86.6373L1702.67 89.4214C1702.67 89.4214 1699.65 88.3242 1698.06 87.1942C1696.53 86.0994 1694.11 83.8533 1694.11 83.8533C1694.11 83.8533 1691.5 85.3127 1689.5 86.0805C1687.5 86.8483 1686.32 87.5438 1682.26 88.3078C1676.33 89.4214 1675.01 89.4214 1675.01 89.4214L1675.01 100.001M1675.01 100.001L1659.21 100.001M1675.01 100.001L1675.01 110.024" stroke="url(#paint22_linear_287_419)" stroke-opacity="0.5" stroke-width="2"/>
<path d="M1730.33 49.3306L1736.26 58.2396L1730.33 63.251M1730.33 67.1487L1738.89 74.3874L1746.14 80.5124L1754.7 86.6373L1759.31 89.4214C1759.31 89.4214 1762.33 88.3242 1763.92 87.1942C1765.45 86.0995 1767.87 83.8533 1767.87 83.8533C1767.87 83.8533 1770.48 85.3127 1772.48 86.0805C1774.48 86.8483 1775.66 87.5439 1779.72 88.3078C1785.65 89.4214 1786.97 89.4214 1786.97 89.4214L1786.97 100.001M1786.97 100.001L1802.77 100.001M1786.97 100.001L1786.97 110.024" stroke="url(#paint23_linear_287_419)" stroke-opacity="0.5" stroke-width="2"/>
<path d="M1731.65 156.796L1731.65 150.671L1737.58 141.762L1731.65 136.751L1731.65 132.853L1738.89 125.614L1746.14 119.489L1754.7 113.364L1759.31 110.58C1759.31 110.58 1762.33 111.678 1763.92 112.808C1765.45 113.902 1767.87 116.148 1767.87 116.148C1767.87 116.148 1770.48 114.689 1772.48 113.921C1774.48 113.153 1775.66 112.458 1779.72 111.694C1785.65 110.58 1786.97 110.58 1786.97 110.58L1786.97 100.001L1786.97 89.978" stroke="url(#paint24_linear_287_419)" stroke-opacity="0.5" stroke-width="2"/>
<path d="M1731.65 150.671L1725.72 141.762L1731.65 136.75M1731.65 132.852L1723.09 125.614L1715.84 119.489L1707.28 113.364L1702.67 110.58C1702.67 110.58 1699.65 111.677 1698.06 112.807C1696.53 113.902 1694.11 116.148 1694.11 116.148C1694.11 116.148 1691.5 114.688 1689.5 113.921C1687.5 113.153 1686.32 112.457 1682.26 111.693C1676.33 110.58 1675.01 110.58 1675.01 110.58L1675.01 100L1675.01 89.9775" stroke="url(#paint25_linear_287_419)" stroke-opacity="0.5" stroke-width="2"/>
<rect x="1461.32" y="26.3867" width="146.837" height="147.227" rx="45" stroke="url(#paint26_linear_287_419)" stroke-opacity="0.5" stroke-width="2"/>
<path d="M1534.08 43.2051L1534.08 49.3301L1528.15 58.2392L1534.08 63.2505L1534.08 67.1482L1526.83 74.3869L1519.59 80.5119L1511.03 86.6369L1506.42 89.4209C1506.42 89.4209 1503.39 88.3237 1501.81 87.1937C1500.27 86.099 1497.86 83.8528 1497.86 83.8528C1497.86 83.8528 1495.25 85.3122 1493.25 86.08C1491.24 86.8478 1490.07 87.5434 1486 88.3073C1480.07 89.4209 1478.76 89.4209 1478.76 89.4209L1478.76 100M1478.76 100L1462.95 100M1478.76 100L1478.76 110.023" stroke="url(#paint27_linear_287_419)" stroke-opacity="0.5" stroke-width="2"/>
<path d="M1534.08 49.3301L1540 58.2392L1534.08 63.2505M1534.08 67.1482L1542.64 74.3869L1549.88 80.5119L1558.44 86.6369L1563.05 89.4209C1563.05 89.4209 1566.08 88.3237 1567.66 87.1937C1569.2 86.099 1571.62 83.8528 1571.62 83.8528C1571.62 83.8528 1574.22 85.3123 1576.23 86.08C1578.23 86.8478 1579.4 87.5434 1583.47 88.3073C1589.4 89.4209 1590.71 89.4209 1590.71 89.4209L1590.71 100M1590.71 100L1606.52 100M1590.71 100L1590.71 110.023" stroke="url(#paint28_linear_287_419)" stroke-opacity="0.5" stroke-width="2"/>
<path d="M1535.39 156.796L1535.39 150.671L1541.32 141.762L1535.39 136.75L1535.39 132.852L1542.64 125.614L1549.88 119.489L1558.44 113.364L1563.05 110.58C1563.05 110.58 1566.08 111.677 1567.66 112.807C1569.2 113.902 1571.62 116.148 1571.62 116.148C1571.62 116.148 1574.22 114.688 1576.23 113.921C1578.23 113.153 1579.4 112.457 1583.47 111.693C1589.4 110.58 1590.71 110.58 1590.71 110.58L1590.71 100L1590.71 89.9775" stroke="url(#paint29_linear_287_419)" stroke-opacity="0.5" stroke-width="2"/>
<path d="M1535.39 150.67L1529.47 141.761L1535.39 136.75M1535.39 132.852L1526.83 125.613L1519.59 119.488L1511.03 113.363L1506.42 110.579C1506.42 110.579 1503.39 111.677 1501.81 112.807C1500.27 113.901 1497.85 116.147 1497.85 116.147C1497.85 116.147 1495.25 114.688 1493.24 113.92C1491.24 113.152 1490.07 112.457 1486 111.693C1480.07 110.579 1478.76 110.579 1478.76 110.579L1478.76 99.9998L1478.76 89.977" stroke="url(#paint30_linear_287_419)" stroke-opacity="0.5" stroke-width="2"/>
<rect x="1323.79" y="122.159" width="123.841" height="174.497" rx="45" transform="rotate(90 1323.79 122.159)" stroke="url(#paint31_linear_287_419)" stroke-opacity="0.5" stroke-width="2"/>
<path d="M1303.72 183.523L1296.47 183.523L1285.94 178.512L1280.01 183.523L1275.4 183.523L1266.84 177.398L1259.59 171.273L1252.35 164.035L1249.06 160.137C1249.06 160.137 1250.36 157.58 1251.69 156.239C1252.99 154.941 1255.64 152.898 1255.64 152.898C1255.64 152.898 1253.92 150.692 1253.01 149.001C1252.1 147.309 1251.28 146.313 1250.37 142.876C1249.06 137.864 1249.06 136.751 1249.06 136.751L1236.54 136.751M1236.54 136.751L1236.54 123.387M1236.54 136.751L1224.69 136.751" stroke="url(#paint32_linear_287_419)" stroke-opacity="0.5" stroke-width="2"/>
<path d="M1296.47 183.523L1285.94 188.534L1280.01 183.523M1275.4 183.523L1266.84 190.762L1259.59 196.887L1252.35 204.125L1249.06 208.023C1249.06 208.023 1250.36 210.58 1251.69 211.921C1252.99 213.219 1255.64 215.262 1255.64 215.262C1255.64 215.262 1253.92 217.468 1253.01 219.159C1252.1 220.851 1251.28 221.847 1250.37 225.284C1249.06 230.296 1249.06 231.409 1249.06 231.409L1236.54 231.409M1236.54 231.409L1236.54 244.773M1236.54 231.409L1224.69 231.409" stroke="url(#paint33_linear_287_419)" stroke-opacity="0.5" stroke-width="2"/>
<path d="M1169.37 184.636L1176.61 184.636L1187.15 189.648L1193.08 184.636L1197.69 184.636L1206.25 190.761L1213.49 196.886L1220.74 204.125L1224.03 208.023C1224.03 208.023 1222.73 210.58 1221.4 211.92C1220.1 213.219 1217.45 215.261 1217.45 215.261C1217.45 215.261 1219.17 217.467 1220.08 219.159C1220.99 220.851 1221.81 221.846 1222.71 225.284C1224.03 230.295 1224.03 231.409 1224.03 231.409L1236.54 231.409L1248.4 231.409" stroke="url(#paint34_linear_287_419)" stroke-opacity="0.5" stroke-width="2"/>
<path d="M1176.62 184.636L1187.15 179.625L1193.08 184.636M1197.69 184.636L1206.25 177.397L1213.5 171.272L1220.74 164.034L1224.03 160.136C1224.03 160.136 1222.73 157.579 1221.4 156.238C1220.1 154.94 1217.45 152.897 1217.45 152.897C1217.45 152.897 1219.17 150.692 1220.08 149C1220.99 147.308 1221.81 146.313 1222.72 142.875C1224.03 137.863 1224.03 136.75 1224.03 136.75L1236.55 136.75L1248.4 136.75" stroke="url(#paint35_linear_287_419)" stroke-opacity="0.5" stroke-width="2"/>
<rect x="1522.68" y="122.159" width="123.841" height="174.497" rx="45" transform="rotate(90 1522.68 122.159)" stroke="url(#paint36_linear_287_419)" stroke-opacity="0.5" stroke-width="2"/>
<path d="M1502.61 183.523L1495.37 183.523L1484.83 178.512L1478.9 183.523L1474.29 183.523L1465.73 177.398L1458.49 171.273L1451.24 164.035L1447.95 160.137C1447.95 160.137 1449.25 157.58 1450.58 156.239C1451.88 154.941 1454.53 152.898 1454.53 152.898C1454.53 152.898 1452.81 150.692 1451.9 149.001C1450.99 147.309 1450.17 146.313 1449.27 142.876C1447.95 137.864 1447.95 136.751 1447.95 136.751L1435.44 136.751M1435.44 136.751L1435.44 123.387M1435.44 136.751L1423.58 136.751" stroke="url(#paint37_linear_287_419)" stroke-opacity="0.5" stroke-width="2"/>
<path d="M1495.37 183.523L1484.83 188.534L1478.9 183.523M1474.29 183.523L1465.73 190.762L1458.49 196.887L1451.24 204.125L1447.95 208.023C1447.95 208.023 1449.25 210.58 1450.58 211.921C1451.88 213.219 1454.53 215.262 1454.53 215.262C1454.53 215.262 1452.81 217.468 1451.9 219.159C1450.99 220.851 1450.17 221.847 1449.27 225.284C1447.95 230.296 1447.95 231.409 1447.95 231.409L1435.44 231.409M1435.44 231.409L1435.44 244.773M1435.44 231.409L1423.58 231.409" stroke="url(#paint38_linear_287_419)" stroke-opacity="0.5" stroke-width="2"/>
<path d="M1368.26 184.637L1375.51 184.637L1386.04 189.648L1391.97 184.637L1396.58 184.637L1405.14 190.761L1412.39 196.886L1419.63 204.125L1422.92 208.023C1422.92 208.023 1421.62 210.58 1420.29 211.921C1418.99 213.219 1416.34 215.261 1416.34 215.261C1416.34 215.261 1418.06 217.467 1418.97 219.159C1419.88 220.851 1420.7 221.846 1421.61 225.284C1422.92 230.296 1422.92 231.409 1422.92 231.409L1435.44 231.409L1447.29 231.409" stroke="url(#paint39_linear_287_419)" stroke-opacity="0.5" stroke-width="2"/>
<path d="M1375.51 184.636L1386.04 179.625L1391.97 184.636M1396.58 184.636L1405.14 177.398L1412.39 171.273L1419.63 164.034L1422.92 160.136C1422.92 160.136 1421.62 157.579 1420.29 156.239C1418.99 154.94 1416.34 152.898 1416.34 152.898C1416.34 152.898 1418.06 150.692 1418.97 149C1419.88 147.308 1420.7 146.313 1421.61 142.875C1422.92 137.864 1422.92 136.75 1422.92 136.75L1435.44 136.75L1447.29 136.75" stroke="url(#paint40_linear_287_419)" stroke-opacity="0.5" stroke-width="2"/>
<rect x="1522.68" y="-45.9998" width="123.841" height="174.497" rx="45" transform="rotate(90 1522.68 -45.9998)" stroke="url(#paint41_linear_287_419)" stroke-opacity="0.5" stroke-width="2"/>
<path d="M1502.61 15.3638L1495.36 15.3638L1484.83 10.3525L1478.9 15.3638L1474.29 15.3638L1465.73 9.23884L1458.48 3.11385L1451.24 -4.12478L1447.95 -8.0225C1447.95 -8.0225 1449.25 -10.5799 1450.58 -11.9202C1451.88 -13.2187 1454.53 -15.2611 1454.53 -15.2611C1454.53 -15.2611 1452.81 -17.467 1451.9 -19.1589C1450.99 -20.8507 1450.17 -21.8461 1449.26 -25.2838C1447.95 -30.2952 1447.95 -31.4088 1447.95 -31.4088L1435.43 -31.4088M1435.43 -31.4088L1435.43 -44.7725M1435.43 -31.4088L1423.58 -31.4088" stroke="url(#paint42_linear_287_419)" stroke-opacity="0.5" stroke-width="2"/>
<path d="M1495.36 15.3636L1484.83 20.3749L1478.9 15.3636M1474.29 15.3636L1465.73 22.6022L1458.48 28.7272L1451.24 35.9658L1447.95 39.8636C1447.95 39.8636 1449.24 42.4209 1450.58 43.7613C1451.88 45.0597 1454.53 47.1022 1454.53 47.1022C1454.53 47.1022 1452.81 49.3081 1451.9 50.9999C1450.99 52.6917 1450.17 53.6871 1449.26 57.1249C1447.95 62.1363 1447.95 63.2499 1447.95 63.2499L1435.43 63.2499M1435.43 63.2499L1435.43 76.6135M1435.43 63.2499L1423.58 63.2499" stroke="url(#paint43_linear_287_419)" stroke-opacity="0.5" stroke-width="2"/>
<path d="M1368.26 16.4776L1375.5 16.4776L1386.04 21.4889L1391.97 16.4776L1396.58 16.4776L1405.14 22.6026L1412.38 28.7276L1419.63 35.9662L1422.92 39.8639C1422.92 39.8639 1421.62 42.4213 1420.29 43.7616C1418.99 45.0601 1416.34 47.1025 1416.34 47.1025C1416.34 47.1025 1418.06 49.3084 1418.97 51.0003C1419.88 52.6921 1420.7 53.6875 1421.6 57.1253C1422.92 62.1366 1422.92 63.2503 1422.92 63.2503L1435.43 63.2503L1447.29 63.2503" stroke="url(#paint44_linear_287_419)" stroke-opacity="0.5" stroke-width="2"/>
<path d="M1375.5 16.4779L1386.04 11.4665L1391.97 16.4779M1396.58 16.4779L1405.14 9.23924L1412.38 3.11425L1419.63 -4.12438L1422.92 -8.0221C1422.92 -8.0221 1421.62 -10.5795 1420.29 -11.9198C1418.99 -13.2183 1416.34 -15.2607 1416.34 -15.2607C1416.34 -15.2607 1418.06 -17.4666 1418.97 -19.1585C1419.88 -20.8503 1420.7 -21.8457 1421.6 -25.2834C1422.92 -30.2948 1422.92 -31.4084 1422.92 -31.4084L1435.43 -31.4084L1447.29 -31.4084" stroke="url(#paint45_linear_287_419)" stroke-opacity="0.5" stroke-width="2"/>
<rect x="1323.79" y="-46" width="123.841" height="174.497" rx="45" transform="rotate(90 1323.79 -46)" stroke="url(#paint46_linear_287_419)" stroke-opacity="0.5" stroke-width="2"/>
<path d="M1303.72 15.3638L1296.47 15.3638L1285.94 10.3525L1280.01 15.3638L1275.4 15.3638L1266.84 9.23884L1259.59 3.11385L1252.35 -4.12478L1249.06 -8.0225C1249.06 -8.0225 1250.36 -10.5799 1251.69 -11.9202C1252.99 -13.2187 1255.64 -15.2611 1255.64 -15.2611C1255.64 -15.2611 1253.92 -17.467 1253.01 -19.1589C1252.1 -20.8507 1251.28 -21.8461 1250.37 -25.2838C1249.06 -30.2952 1249.06 -31.4088 1249.06 -31.4088L1236.54 -31.4088M1236.54 -31.4088L1236.54 -44.7725M1236.54 -31.4088L1224.69 -31.4088" stroke="url(#paint47_linear_287_419)" stroke-opacity="0.5" stroke-width="2"/>
<path d="M1296.48 15.3638L1285.94 20.3752L1280.01 15.3638M1275.4 15.3638L1266.84 22.6025L1259.6 28.7274L1252.35 35.9661L1249.06 39.8638C1249.06 39.8638 1250.36 42.4212 1251.69 43.7615C1252.99 45.06 1255.64 47.1024 1255.64 47.1024C1255.64 47.1024 1253.92 49.3083 1253.01 51.0002C1252.1 52.692 1251.28 53.6874 1250.38 57.1251C1249.06 62.1365 1249.06 63.2501 1249.06 63.2501L1236.55 63.2501M1236.55 63.2501L1236.55 76.6138M1236.55 63.2501L1224.69 63.2501" stroke="url(#paint48_linear_287_419)" stroke-opacity="0.5" stroke-width="2"/>
<path d="M1169.37 16.4776L1176.62 16.4776L1187.15 21.4889L1193.08 16.4776L1197.69 16.4776L1206.25 22.6026L1213.5 28.7276L1220.74 35.9662L1224.03 39.8639C1224.03 39.8639 1222.73 42.4213 1221.4 43.7616C1220.1 45.0601 1217.45 47.1025 1217.45 47.1025C1217.45 47.1025 1219.17 49.3084 1220.08 51.0003C1220.99 52.6921 1221.81 53.6875 1222.72 57.1253C1224.03 62.1366 1224.03 63.2503 1224.03 63.2503L1236.55 63.2503L1248.4 63.2503" stroke="url(#paint49_linear_287_419)" stroke-opacity="0.5" stroke-width="2"/>
<path d="M1176.62 16.4779L1187.15 11.4665L1193.08 16.4779M1197.69 16.4779L1206.25 9.23924L1213.5 3.11425L1220.74 -4.12438L1224.03 -8.0221C1224.03 -8.0221 1222.74 -10.5795 1221.4 -11.9198C1220.1 -13.2183 1217.45 -15.2607 1217.45 -15.2607C1217.45 -15.2607 1219.17 -17.4666 1220.08 -19.1585C1220.99 -20.8503 1221.81 -21.8457 1222.72 -25.2834C1224.03 -30.2948 1224.03 -31.4084 1224.03 -31.4084L1236.55 -31.4084L1248.4 -31.4084" stroke="url(#paint50_linear_287_419)" stroke-opacity="0.5" stroke-width="2"/>
<rect x="1261.25" y="26.387" width="146.837" height="147.227" rx="45" stroke="url(#paint51_linear_287_419)" stroke-opacity="0.5" stroke-width="2"/>
<path d="M1334.01 43.2058L1334.01 49.3308L1328.09 58.2399L1334.01 63.2512L1334.01 67.149L1326.77 74.3876L1319.53 80.5126L1310.96 86.6376L1306.35 89.4217C1306.35 89.4217 1303.33 88.3244 1301.74 87.1944C1300.21 86.0997 1297.79 83.8535 1297.79 83.8535C1297.79 83.8535 1295.18 85.313 1293.18 86.0808C1291.18 86.8486 1290.01 87.5441 1285.94 88.308C1280.01 89.4217 1278.69 89.4217 1278.69 89.4217L1278.69 100.001M1278.69 100.001L1262.89 100.001M1278.69 100.001L1278.69 110.024" stroke="url(#paint52_linear_287_419)" stroke-opacity="0.5" stroke-width="2"/>
<path d="M1334.01 49.3306L1339.94 58.2396L1334.01 63.251M1334.01 67.1487L1342.58 74.3874L1349.82 80.5124L1358.38 86.6373L1362.99 89.4214C1362.99 89.4214 1366.02 88.3242 1367.6 87.1942C1369.14 86.0995 1371.55 83.8533 1371.55 83.8533C1371.55 83.8533 1374.16 85.3127 1376.16 86.0805C1378.16 86.8483 1379.34 87.5439 1383.41 88.3078C1389.33 89.4214 1390.65 89.4214 1390.65 89.4214L1390.65 100.001M1390.65 100.001L1406.46 100.001M1390.65 100.001L1390.65 110.024" stroke="url(#paint53_linear_287_419)" stroke-opacity="0.5" stroke-width="2"/>
<path d="M1335.33 156.796L1335.33 150.671L1341.26 141.762L1335.33 136.751L1335.33 132.853L1342.58 125.614L1349.82 119.489L1358.38 113.364L1362.99 110.58C1362.99 110.58 1366.02 111.678 1367.6 112.808C1369.14 113.902 1371.55 116.148 1371.55 116.148C1371.55 116.148 1374.16 114.689 1376.16 113.921C1378.16 113.153 1379.34 112.458 1383.41 111.694C1389.33 110.58 1390.65 110.58 1390.65 110.58L1390.65 100.001L1390.65 89.978" stroke="url(#paint54_linear_287_419)" stroke-opacity="0.5" stroke-width="2"/>
<path d="M1335.33 150.671L1329.4 141.762L1335.33 136.75M1335.33 132.852L1326.77 125.614L1319.53 119.489L1310.96 113.364L1306.35 110.58C1306.35 110.58 1303.33 111.677 1301.74 112.807C1300.21 113.902 1297.79 116.148 1297.79 116.148C1297.79 116.148 1295.18 114.688 1293.18 113.921C1291.18 113.153 1290 112.457 1285.94 111.693C1280.01 110.58 1278.69 110.58 1278.69 110.58L1278.69 100L1278.69 89.9775" stroke="url(#paint55_linear_287_419)" stroke-opacity="0.5" stroke-width="2"/>
<rect x="1065" y="26.3867" width="146.837" height="147.227" rx="45" stroke="url(#paint56_linear_287_419)" stroke-opacity="0.5" stroke-width="2"/>
<path d="M1137.76 43.2053L1137.76 49.3303L1131.83 58.2394L1137.76 63.2508L1137.76 67.1485L1130.52 74.3871L1123.27 80.5121L1114.71 86.6371L1110.1 89.4212C1110.1 89.4212 1107.08 88.3239 1105.49 87.1939C1103.95 86.0992 1101.54 83.853 1101.54 83.853C1101.54 83.853 1098.93 85.3125 1096.93 86.0803C1094.93 86.8481 1093.75 87.5436 1089.68 88.3075C1083.76 89.4212 1082.44 89.4212 1082.44 89.4212L1082.44 100.001M1082.44 100.001L1066.63 100.001M1082.44 100.001L1082.44 110.023" stroke="url(#paint57_linear_287_419)" stroke-opacity="0.5" stroke-width="2"/>
<path d="M1137.76 49.3301L1143.69 58.2392L1137.76 63.2505M1137.76 67.1482L1146.32 74.3869L1153.57 80.5119L1162.13 86.6369L1166.74 89.4209C1166.74 89.4209 1169.76 88.3237 1171.35 87.1937C1172.88 86.099 1175.3 83.8528 1175.3 83.8528C1175.3 83.8528 1177.91 85.3123 1179.91 86.08C1181.91 86.8478 1183.09 87.5434 1187.15 88.3073C1193.08 89.4209 1194.4 89.4209 1194.4 89.4209L1194.4 100M1194.4 100L1210.2 100M1194.4 100L1194.4 110.023" stroke="url(#paint58_linear_287_419)" stroke-opacity="0.5" stroke-width="2"/>
<path d="M1139.08 156.796L1139.08 150.671L1145 141.762L1139.08 136.75L1139.08 132.852L1146.32 125.614L1153.57 119.489L1162.13 113.364L1166.74 110.58C1166.74 110.58 1169.76 111.677 1171.35 112.807C1172.88 113.902 1175.3 116.148 1175.3 116.148C1175.3 116.148 1177.91 114.688 1179.91 113.921C1181.91 113.153 1183.09 112.457 1187.15 111.693C1193.08 110.58 1194.4 110.58 1194.4 110.58L1194.4 100L1194.4 89.9775" stroke="url(#paint59_linear_287_419)" stroke-opacity="0.5" stroke-width="2"/>
<path d="M1139.08 150.67L1133.15 141.761L1139.08 136.75M1139.08 132.852L1130.52 125.613L1123.27 119.488L1114.71 113.363L1110.1 110.579C1110.1 110.579 1107.08 111.677 1105.49 112.807C1103.95 113.901 1101.54 116.147 1101.54 116.147C1101.54 116.147 1098.93 114.688 1096.93 113.92C1094.93 113.152 1093.75 112.457 1089.68 111.693C1083.76 110.579 1082.44 110.579 1082.44 110.579L1082.44 99.9998L1082.44 89.977" stroke="url(#paint60_linear_287_419)" stroke-opacity="0.5" stroke-width="2"/>
<path d="M1430.44 24.4258L1539.5 130.517L1528.37 284.832L1417.83 244.77L1430.44 24.4258Z" fill="url(#paint61_linear_287_419)"/>
<path d="M1165.12 310.694H1245.25V333.693L1188.12 335.281L1165.12 310.694Z" fill="#8B91DF"/>
<path d="M1269.73 114.195L1431.46 23.6838L1418.11 244.77L1425.53 335.281L1428.5 367.183L1433.69 441.373L1437.4 490.338L1250.44 546.722L1246.73 367.183L1243.76 311.54H1165.86L1159.93 560.818H1016C1016 560.818 1021.16 502.01 1024.9 464.371C1028.68 426.389 1035.29 367.183 1035.29 367.183L1044.19 286.316V238.834L1040.48 212.868L1021.19 130.517L1175.51 188.385V219.545H1255.63L1269.73 114.195Z" fill="url(#paint62_linear_287_419)"/>
<path d="M1165.86 311.54L1188.12 335.281L1196.28 551.915L1159.93 560.818L1165.86 311.54Z" fill="url(#paint63_linear_287_419)"/>
<path d="M1175.51 188.385C1177.29 188.385 1167.84 190.858 1219.28 183.192L1228.18 219.545H1175.51V188.385Z" fill="#797BC5"/>
<path d="M1176.25 189.127L1218.54 183.934L1021.94 130.517L1176.25 189.127Z" fill="url(#paint64_linear_287_419)"/>
<path d="M1418.85 244.682L1508.62 274.157L1541.26 128.292C1541.26 128.292 1528.65 273.401 1528.65 280.959V294.563C1528.65 298.342 1531.62 312.702 1531.62 312.702L1550.91 458.567L1436.66 491.822L1418.85 244.682Z" fill="url(#paint65_linear_287_419)"/>
<path d="M1065.71 310.799H1080.55V330.83H1065.71V310.799Z" fill="#C98A8A"/>
<path d="M1117.64 310.799H1132.48V330.83H1117.64V310.799Z" fill="#C98A8A"/>
<path d="M1117.64 355.313H1132.48V375.344H1117.64V355.313Z" fill="#C98A8A"/>
<path d="M1117.64 393.892H1132.48V413.923H1117.64V393.892Z" fill="#C98A8A"/>
<path d="M1065.71 393.891H1080.55V413.923H1065.71V393.891Z" fill="#C98A8A"/>
<path d="M1065.71 355.313H1080.55V375.344H1065.71V355.313Z" fill="#C98A8A"/>
<path d="M1309.05 290.025H1323.89V310.056H1309.05V290.025Z" fill="#C98A8A"/>
<path d="M1359.5 285.574H1374.34V305.605H1359.5V285.574Z" fill="#C98A8A"/>
<path d="M1359.5 246.995H1374.34V267.026H1359.5V246.995Z" fill="#C98A8A"/>
<path d="M1359.5 330.088H1374.34V350.119H1359.5V330.088Z" fill="#C98A8A"/>
<path d="M1359.5 368.667H1374.34V388.698H1359.5V368.667Z" fill="#C98A8A"/>
<path d="M1359.5 413.181H1374.34V433.212H1359.5V413.181Z" fill="#C98A8A"/>
<path d="M1309.05 417.632H1323.89V437.663H1309.05V417.632Z" fill="#C98A8A"/>
<path d="M1309.05 373.118H1323.89V393.149H1309.05V373.118Z" fill="#C98A8A"/>
<path d="M1309.05 334.54H1323.89V354.571H1309.05V334.54Z" fill="#C98A8A"/>
</g>
<defs>
<linearGradient id="paint0_linear_287_419" x1="236.555" y1="-234.488" x2="1304.56" y2="983.94" gradientUnits="userSpaceOnUse">
<stop stop-color="#0067AC"/>
<stop offset="0.486291" stop-color="#2785C4"/>
<stop offset="0.916667" stop-color="#95A5FF"/>
</linearGradient>
<linearGradient id="paint1_linear_287_419" x1="1784.03" y1="121.159" x2="1784.03" y2="297.657" gradientUnits="userSpaceOnUse">
<stop stop-color="#95A5FF"/>
<stop offset="1" stop-color="white" stop-opacity="0.74"/>
</linearGradient>
<linearGradient id="paint2_linear_287_419" x1="1700.04" y1="153.455" x2="1621.01" y2="153.455" gradientUnits="userSpaceOnUse">
<stop stop-color="#95A5FF"/>
<stop offset="1" stop-color="white" stop-opacity="0.74"/>
</linearGradient>
<linearGradient id="paint3_linear_287_419" x1="1692.79" y1="214.148" x2="1621.01" y2="214.148" gradientUnits="userSpaceOnUse">
<stop stop-color="#95A5FF"/>
<stop offset="1" stop-color="white" stop-opacity="0.74"/>
</linearGradient>
<linearGradient id="paint4_linear_287_419" x1="1565.69" y1="208.023" x2="1644.72" y2="208.023" gradientUnits="userSpaceOnUse">
<stop stop-color="#95A5FF"/>
<stop offset="1" stop-color="white" stop-opacity="0.74"/>
</linearGradient>
<linearGradient id="paint5_linear_287_419" x1="1572.93" y1="160.693" x2="1644.72" y2="160.693" gradientUnits="userSpaceOnUse">
<stop stop-color="#95A5FF"/>
<stop offset="1" stop-color="white" stop-opacity="0.74"/>
</linearGradient>
<linearGradient id="paint6_linear_287_419" x1="1982.92" y1="121.159" x2="1982.92" y2="297.657" gradientUnits="userSpaceOnUse">
<stop stop-color="#95A5FF"/>
<stop offset="1" stop-color="white" stop-opacity="0.74"/>
</linearGradient>
<linearGradient id="paint7_linear_287_419" x1="1898.92" y1="153.455" x2="1819.9" y2="153.455" gradientUnits="userSpaceOnUse">
<stop stop-color="#95A5FF"/>
<stop offset="1" stop-color="white" stop-opacity="0.74"/>
</linearGradient>
<linearGradient id="paint8_linear_287_419" x1="1891.68" y1="214.148" x2="1819.89" y2="214.148" gradientUnits="userSpaceOnUse">
<stop stop-color="#95A5FF"/>
<stop offset="1" stop-color="white" stop-opacity="0.74"/>
</linearGradient>
<linearGradient id="paint9_linear_287_419" x1="1764.58" y1="208.023" x2="1843.6" y2="208.023" gradientUnits="userSpaceOnUse">
<stop stop-color="#95A5FF"/>
<stop offset="1" stop-color="white" stop-opacity="0.74"/>
</linearGradient>
<linearGradient id="paint10_linear_287_419" x1="1771.82" y1="160.693" x2="1843.61" y2="160.693" gradientUnits="userSpaceOnUse">
<stop stop-color="#95A5FF"/>
<stop offset="1" stop-color="white" stop-opacity="0.74"/>
</linearGradient>
<linearGradient id="paint11_linear_287_419" x1="1982.92" y1="-46.9995" x2="1982.92" y2="129.498" gradientUnits="userSpaceOnUse">
<stop stop-color="#95A5FF"/>
<stop offset="1" stop-color="white" stop-opacity="0.74"/>
</linearGradient>
<linearGradient id="paint12_linear_287_419" x1="1898.92" y1="-14.7043" x2="1819.9" y2="-14.7043" gradientUnits="userSpaceOnUse">
<stop stop-color="#95A5FF"/>
<stop offset="1" stop-color="white" stop-opacity="0.74"/>
</linearGradient>
<linearGradient id="paint13_linear_287_419" x1="1891.68" y1="45.9886" x2="1819.89" y2="45.9886" gradientUnits="userSpaceOnUse">
<stop stop-color="#95A5FF"/>
<stop offset="1" stop-color="white" stop-opacity="0.74"/>
</linearGradient>
<linearGradient id="paint14_linear_287_419" x1="1764.58" y1="39.8641" x2="1843.6" y2="39.8642" gradientUnits="userSpaceOnUse">
<stop stop-color="#95A5FF"/>
<stop offset="1" stop-color="white" stop-opacity="0.74"/>
</linearGradient>
<linearGradient id="paint15_linear_287_419" x1="1771.82" y1="-7.46505" x2="1843.6" y2="-7.46504" gradientUnits="userSpaceOnUse">
<stop stop-color="#95A5FF"/>
<stop offset="1" stop-color="white" stop-opacity="0.74"/>
</linearGradient>
<linearGradient id="paint16_linear_287_419" x1="1784.03" y1="-47" x2="1784.03" y2="129.497" gradientUnits="userSpaceOnUse">
<stop stop-color="#95A5FF"/>
<stop offset="1" stop-color="white" stop-opacity="0.74"/>
</linearGradient>
<linearGradient id="paint17_linear_287_419" x1="1700.04" y1="-14.7041" x2="1621.01" y2="-14.7041" gradientUnits="userSpaceOnUse">
<stop stop-color="#95A5FF"/>
<stop offset="1" stop-color="white" stop-opacity="0.74"/>
</linearGradient>
<linearGradient id="paint18_linear_287_419" x1="1692.79" y1="45.9888" x2="1621.01" y2="45.9888" gradientUnits="userSpaceOnUse">
<stop stop-color="#95A5FF"/>
<stop offset="1" stop-color="white" stop-opacity="0.74"/>
</linearGradient>
<linearGradient id="paint19_linear_287_419" x1="1565.69" y1="39.8639" x2="1644.72" y2="39.8639" gradientUnits="userSpaceOnUse">
<stop stop-color="#95A5FF"/>
<stop offset="1" stop-color="white" stop-opacity="0.74"/>
</linearGradient>
<linearGradient id="paint20_linear_287_419" x1="1572.93" y1="-7.46529" x2="1644.72" y2="-7.46528" gradientUnits="userSpaceOnUse">
<stop stop-color="#95A5FF"/>
<stop offset="1" stop-color="white" stop-opacity="0.74"/>
</linearGradient>
<linearGradient id="paint21_linear_287_419" x1="1730.99" y1="25.387" x2="1730.99" y2="174.614" gradientUnits="userSpaceOnUse">
<stop stop-color="#95A5FF"/>
<stop offset="1" stop-color="white" stop-opacity="0.74"/>
</linearGradient>
<linearGradient id="paint22_linear_287_419" x1="1694.77" y1="43.2056" x2="1694.77" y2="110.024" gradientUnits="userSpaceOnUse">
<stop stop-color="#95A5FF"/>
<stop offset="1" stop-color="white" stop-opacity="0.74"/>
</linearGradient>
<linearGradient id="paint23_linear_287_419" x1="1766.55" y1="49.3306" x2="1766.55" y2="110.024" gradientUnits="userSpaceOnUse">
<stop stop-color="#95A5FF"/>
<stop offset="1" stop-color="white" stop-opacity="0.74"/>
</linearGradient>
<linearGradient id="paint24_linear_287_419" x1="1759.31" y1="156.796" x2="1759.31" y2="89.978" gradientUnits="userSpaceOnUse">
<stop stop-color="#95A5FF"/>
<stop offset="1" stop-color="white" stop-opacity="0.74"/>
</linearGradient>
<linearGradient id="paint25_linear_287_419" x1="1703.33" y1="150.671" x2="1703.33" y2="89.9775" gradientUnits="userSpaceOnUse">
<stop stop-color="#95A5FF"/>
<stop offset="1" stop-color="white" stop-opacity="0.74"/>
</linearGradient>
<linearGradient id="paint26_linear_287_419" x1="1534.74" y1="25.3867" x2="1534.74" y2="174.614" gradientUnits="userSpaceOnUse">
<stop stop-color="#95A5FF"/>
<stop offset="1" stop-color="white" stop-opacity="0.74"/>
</linearGradient>
<linearGradient id="paint27_linear_287_419" x1="1498.51" y1="43.2051" x2="1498.51" y2="110.023" gradientUnits="userSpaceOnUse">
<stop stop-color="#95A5FF"/>
<stop offset="1" stop-color="white" stop-opacity="0.74"/>
</linearGradient>
<linearGradient id="paint28_linear_287_419" x1="1570.3" y1="49.3301" x2="1570.3" y2="110.023" gradientUnits="userSpaceOnUse">
<stop stop-color="#95A5FF"/>
<stop offset="1" stop-color="white" stop-opacity="0.74"/>
</linearGradient>
<linearGradient id="paint29_linear_287_419" x1="1563.05" y1="156.796" x2="1563.05" y2="89.9775" gradientUnits="userSpaceOnUse">
<stop stop-color="#95A5FF"/>
<stop offset="1" stop-color="white" stop-opacity="0.74"/>
</linearGradient>
<linearGradient id="paint30_linear_287_419" x1="1507.07" y1="150.67" x2="1507.07" y2="89.977" gradientUnits="userSpaceOnUse">
<stop stop-color="#95A5FF"/>
<stop offset="1" stop-color="white" stop-opacity="0.74"/>
</linearGradient>
<linearGradient id="paint31_linear_287_419" x1="1387.71" y1="121.159" x2="1387.71" y2="297.657" gradientUnits="userSpaceOnUse">
<stop stop-color="#95A5FF"/>
<stop offset="1" stop-color="white" stop-opacity="0.74"/>
</linearGradient>
<linearGradient id="paint32_linear_287_419" x1="1303.72" y1="153.455" x2="1224.69" y2="153.455" gradientUnits="userSpaceOnUse">
<stop stop-color="#95A5FF"/>
<stop offset="1" stop-color="white" stop-opacity="0.74"/>
</linearGradient>
<linearGradient id="paint33_linear_287_419" x1="1296.47" y1="214.148" x2="1224.69" y2="214.148" gradientUnits="userSpaceOnUse">
<stop stop-color="#95A5FF"/>
<stop offset="1" stop-color="white" stop-opacity="0.74"/>
</linearGradient>
<linearGradient id="paint34_linear_287_419" x1="1169.37" y1="208.023" x2="1248.4" y2="208.023" gradientUnits="userSpaceOnUse">
<stop stop-color="#95A5FF"/>
<stop offset="1" stop-color="white" stop-opacity="0.74"/>
</linearGradient>
<linearGradient id="paint35_linear_287_419" x1="1176.62" y1="160.693" x2="1248.4" y2="160.693" gradientUnits="userSpaceOnUse">
<stop stop-color="#95A5FF"/>
<stop offset="1" stop-color="white" stop-opacity="0.74"/>
</linearGradient>
<linearGradient id="paint36_linear_287_419" x1="1586.6" y1="121.159" x2="1586.6" y2="297.657" gradientUnits="userSpaceOnUse">
<stop stop-color="#95A5FF"/>
<stop offset="1" stop-color="white" stop-opacity="0.74"/>
</linearGradient>
<linearGradient id="paint37_linear_287_419" x1="1502.61" y1="153.455" x2="1423.58" y2="153.455" gradientUnits="userSpaceOnUse">
<stop stop-color="#95A5FF"/>
<stop offset="1" stop-color="white" stop-opacity="0.74"/>
</linearGradient>
<linearGradient id="paint38_linear_287_419" x1="1495.37" y1="214.148" x2="1423.58" y2="214.148" gradientUnits="userSpaceOnUse">
<stop stop-color="#95A5FF"/>
<stop offset="1" stop-color="white" stop-opacity="0.74"/>
</linearGradient>
<linearGradient id="paint39_linear_287_419" x1="1368.26" y1="208.023" x2="1447.29" y2="208.023" gradientUnits="userSpaceOnUse">
<stop stop-color="#95A5FF"/>
<stop offset="1" stop-color="white" stop-opacity="0.74"/>
</linearGradient>
<linearGradient id="paint40_linear_287_419" x1="1375.51" y1="160.693" x2="1447.29" y2="160.693" gradientUnits="userSpaceOnUse">
<stop stop-color="#95A5FF"/>
<stop offset="1" stop-color="white" stop-opacity="0.74"/>
</linearGradient>
<linearGradient id="paint41_linear_287_419" x1="1586.6" y1="-46.9998" x2="1586.6" y2="129.498" gradientUnits="userSpaceOnUse">
<stop stop-color="#95A5FF"/>
<stop offset="1" stop-color="white" stop-opacity="0.74"/>
</linearGradient>
<linearGradient id="paint42_linear_287_419" x1="1502.61" y1="-14.7043" x2="1423.58" y2="-14.7043" gradientUnits="userSpaceOnUse">
<stop stop-color="#95A5FF"/>
<stop offset="1" stop-color="white" stop-opacity="0.74"/>
</linearGradient>
<linearGradient id="paint43_linear_287_419" x1="1495.36" y1="45.9886" x2="1423.58" y2="45.9886" gradientUnits="userSpaceOnUse">
<stop stop-color="#95A5FF"/>
<stop offset="1" stop-color="white" stop-opacity="0.74"/>
</linearGradient>
<linearGradient id="paint44_linear_287_419" x1="1368.26" y1="39.8639" x2="1447.29" y2="39.8639" gradientUnits="userSpaceOnUse">
<stop stop-color="#95A5FF"/>
<stop offset="1" stop-color="white" stop-opacity="0.74"/>
</linearGradient>
<linearGradient id="paint45_linear_287_419" x1="1375.5" y1="-7.46529" x2="1447.29" y2="-7.46528" gradientUnits="userSpaceOnUse">
<stop stop-color="#95A5FF"/>
<stop offset="1" stop-color="white" stop-opacity="0.74"/>
</linearGradient>
<linearGradient id="paint46_linear_287_419" x1="1387.71" y1="-47" x2="1387.71" y2="129.497" gradientUnits="userSpaceOnUse">
<stop stop-color="#95A5FF"/>
<stop offset="1" stop-color="white" stop-opacity="0.74"/>
</linearGradient>
<linearGradient id="paint47_linear_287_419" x1="1303.72" y1="-14.7043" x2="1224.69" y2="-14.7043" gradientUnits="userSpaceOnUse">
<stop stop-color="#95A5FF"/>
<stop offset="1" stop-color="white" stop-opacity="0.74"/>
</linearGradient>
<linearGradient id="paint48_linear_287_419" x1="1296.48" y1="45.9888" x2="1224.69" y2="45.9888" gradientUnits="userSpaceOnUse">
<stop stop-color="#95A5FF"/>
<stop offset="1" stop-color="white" stop-opacity="0.74"/>
</linearGradient>
<linearGradient id="paint49_linear_287_419" x1="1169.37" y1="39.8639" x2="1248.4" y2="39.8639" gradientUnits="userSpaceOnUse">
<stop stop-color="#95A5FF"/>
<stop offset="1" stop-color="white" stop-opacity="0.74"/>
</linearGradient>
<linearGradient id="paint50_linear_287_419" x1="1176.62" y1="-7.46529" x2="1248.4" y2="-7.46528" gradientUnits="userSpaceOnUse">
<stop stop-color="#95A5FF"/>
<stop offset="1" stop-color="white" stop-opacity="0.74"/>
</linearGradient>
<linearGradient id="paint51_linear_287_419" x1="1334.67" y1="25.387" x2="1334.67" y2="174.614" gradientUnits="userSpaceOnUse">
<stop stop-color="#95A5FF"/>
<stop offset="1" stop-color="white" stop-opacity="0.74"/>
</linearGradient>
<linearGradient id="paint52_linear_287_419" x1="1298.45" y1="43.2058" x2="1298.45" y2="110.024" gradientUnits="userSpaceOnUse">
<stop stop-color="#95A5FF"/>
<stop offset="1" stop-color="white" stop-opacity="0.74"/>
</linearGradient>
<linearGradient id="paint53_linear_287_419" x1="1370.24" y1="49.3306" x2="1370.24" y2="110.024" gradientUnits="userSpaceOnUse">
<stop stop-color="#95A5FF"/>
<stop offset="1" stop-color="white" stop-opacity="0.74"/>
</linearGradient>
<linearGradient id="paint54_linear_287_419" x1="1362.99" y1="156.796" x2="1362.99" y2="89.978" gradientUnits="userSpaceOnUse">
<stop stop-color="#95A5FF"/>
<stop offset="1" stop-color="white" stop-opacity="0.74"/>
</linearGradient>
<linearGradient id="paint55_linear_287_419" x1="1307.01" y1="150.671" x2="1307.01" y2="89.9775" gradientUnits="userSpaceOnUse">
<stop stop-color="#95A5FF"/>
<stop offset="1" stop-color="white" stop-opacity="0.74"/>
</linearGradient>
<linearGradient id="paint56_linear_287_419" x1="1138.42" y1="25.3867" x2="1138.42" y2="174.614" gradientUnits="userSpaceOnUse">
<stop stop-color="#95A5FF"/>
<stop offset="1" stop-color="white" stop-opacity="0.74"/>
</linearGradient>
<linearGradient id="paint57_linear_287_419" x1="1102.2" y1="43.2053" x2="1102.2" y2="110.023" gradientUnits="userSpaceOnUse">
<stop stop-color="#95A5FF"/>
<stop offset="1" stop-color="white" stop-opacity="0.74"/>
</linearGradient>
<linearGradient id="paint58_linear_287_419" x1="1173.98" y1="49.3301" x2="1173.98" y2="110.023" gradientUnits="userSpaceOnUse">
<stop stop-color="#95A5FF"/>
<stop offset="1" stop-color="white" stop-opacity="0.74"/>
</linearGradient>
<linearGradient id="paint59_linear_287_419" x1="1166.74" y1="156.796" x2="1166.74" y2="89.9775" gradientUnits="userSpaceOnUse">
<stop stop-color="#95A5FF"/>
<stop offset="1" stop-color="white" stop-opacity="0.74"/>
</linearGradient>
<linearGradient id="paint60_linear_287_419" x1="1110.76" y1="150.67" x2="1110.76" y2="89.977" gradientUnits="userSpaceOnUse">
<stop stop-color="#95A5FF"/>
<stop offset="1" stop-color="white" stop-opacity="0.74"/>
</linearGradient>
<linearGradient id="paint61_linear_287_419" x1="1579.84" y1="113.454" x2="1216.31" y2="276.671" gradientUnits="userSpaceOnUse">
<stop stop-color="#95A5FF"/>
<stop offset="1" stop-color="#BDBED3"/>
</linearGradient>
<linearGradient id="paint62_linear_287_419" x1="1438.14" y1="512.595" x2="1519.01" y2="-503.064" gradientUnits="userSpaceOnUse">
<stop stop-color="#E66F42"/>
<stop offset="1" stop-color="#F1E3DD"/>
</linearGradient>
<linearGradient id="paint63_linear_287_419" x1="1194.06" y1="183.192" x2="1194.06" y2="560.818" gradientUnits="userSpaceOnUse">
<stop stop-color="#7B61FF"/>
<stop offset="1" stop-color="#7B61FF"/>
</linearGradient>
<linearGradient id="paint64_linear_287_419" x1="1260.08" y1="189.127" x2="915.844" y2="78.5844" gradientUnits="userSpaceOnUse">
<stop stop-color="#797BC5"/>
<stop offset="1" stop-color="#797BC5" stop-opacity="0"/>
</linearGradient>
<linearGradient id="paint65_linear_287_419" x1="1576.13" y1="372.376" x2="1381.76" y2="-66.0859" gradientUnits="userSpaceOnUse">
<stop stop-color="#7B61FF"/>
<stop offset="1" stop-color="#7B61FF" stop-opacity="0"/>
</linearGradient>
<clipPath id="clip0_287_419">
<rect width="1920" height="430" rx="10" fill="white"/>
</clipPath>
</defs>
</svg>
