<svg width="50" height="46" viewBox="0 0 50 46" fill="none" xmlns="http://www.w3.org/2000/svg">
<path d="M47.3549 24.6836C49.8061 20.6966 50.6037 15.7569 49.5375 11.1641C47.2596 0.702092 34.6453 -3.57293 26.788 3.43808C26.1658 3.98962 25.6123 4.62549 25 5.25951C24.3877 4.6255 23.8343 3.98962 23.212 3.43808C15.3547 -3.57293 2.74046 0.702092 0.462495 11.1641C-0.603682 15.7569 0.193793 20.6966 2.64512 24.6836C7.11854 31.9713 14.4493 37.5769 21.4652 42.676C23.5706 44.2062 26.4294 44.2062 28.5348 42.676C35.5507 37.5768 42.8814 31.9713 47.3549 24.6836Z" fill="url(#paint0_linear_79_545)"/>
<path fill-rule="evenodd" clip-rule="evenodd" d="M22.7041 33.1455C22.0343 33.0194 21.619 32.437 21.5852 31.7562C21.5363 30.7711 21.4747 29.0282 21.4455 26.1735C18.5908 26.1443 16.8479 26.0827 15.8628 26.0338C15.182 26 14.5996 25.5847 14.4735 24.9149C14.3729 24.3805 14.2856 23.6267 14.2856 22.6191C14.2856 21.6114 14.3729 20.8576 14.4735 20.3233C14.5996 19.6534 15.182 19.2381 15.8628 19.2043C16.8479 19.1554 18.5908 19.0939 21.4455 19.0646C21.4747 16.2099 21.5363 14.467 21.5852 13.482C21.619 12.8012 22.0343 12.2188 22.7041 12.0926C23.2385 11.992 23.9923 11.9048 24.9999 11.9048C26.0076 11.9048 26.7614 11.992 27.2957 12.0926C27.9656 12.2188 28.3809 12.8012 28.4147 13.482C28.4636 14.467 28.5251 16.2099 28.5544 19.0646C31.4091 19.0939 33.152 19.1554 34.137 19.2043C34.8178 19.2381 35.4002 19.6534 35.5264 20.3233C35.627 20.8576 35.7142 21.6114 35.7142 22.6191C35.7142 23.6267 35.627 24.3805 35.5264 24.9149C35.4002 25.5847 34.8178 26 34.137 26.0338C33.152 26.0827 31.4091 26.1443 28.5544 26.1735C28.5251 29.0282 28.4636 30.7711 28.4147 31.7562C28.3809 32.437 27.9656 33.0194 27.2957 33.1455C26.7614 33.2461 26.0076 33.3334 24.9999 33.3334C23.9923 33.3334 23.2385 33.2461 22.7041 33.1455Z" fill="#0067AC"/>
<defs>
<linearGradient id="paint0_linear_79_545" x1="33.9286" y1="0" x2="33.9286" y2="65.4762" gradientUnits="userSpaceOnUse">
<stop stop-color="#95A5FF"/>
<stop offset="1" stop-color="#7B61FF"/>
</linearGradient>
</defs>
</svg>
