<svg width="25" height="35" viewBox="0 0 25 35" fill="none" xmlns="http://www.w3.org/2000/svg">
<path d="M5.2125 2.5C5.47111 1.76856 5.95021 1.13532 6.58377 0.687571C7.21734 0.23982 7.97418 -0.0004062 8.75 5.15592e-07H16.25C17.0258 -0.0004062 17.7827 0.23982 18.4162 0.687571C19.0498 1.13532 19.5289 1.76856 19.7875 2.5H21.25C22.2446 2.5 23.1984 2.89509 23.9017 3.59835C24.6049 4.30161 25 5.25544 25 6.25V31.25C25 32.2446 24.6049 33.1984 23.9017 33.9016C23.1984 34.6049 22.2446 35 21.25 35H3.75C2.75544 35 1.80161 34.6049 1.09835 33.9016C0.395088 33.1984 0 32.2446 0 31.25V6.25C0 5.25544 0.395088 4.30161 1.09835 3.59835C1.80161 2.89509 2.75544 2.5 3.75 2.5H5.2125ZM8.75 2.5C8.41848 2.5 8.10054 2.6317 7.86612 2.86612C7.6317 3.10054 7.5 3.41848 7.5 3.75C7.5 4.08152 7.6317 4.39946 7.86612 4.63388C8.10054 4.8683 8.41848 5 8.75 5H16.25C16.5815 5 16.8995 4.8683 17.1339 4.63388C17.3683 4.39946 17.5 4.08152 17.5 3.75C17.5 3.41848 17.3683 3.10054 17.1339 2.86612C16.8995 2.6317 16.5815 2.5 16.25 2.5H8.75ZM10 16.25C10 16.5815 10.1317 16.8995 10.3661 17.1339C10.6005 17.3683 10.9185 17.5 11.25 17.5H18.75C19.0815 17.5 19.3995 17.3683 19.6339 17.1339C19.8683 16.8995 20 16.5815 20 16.25C20 15.9185 19.8683 15.6005 19.6339 15.3661C19.3995 15.1317 19.0815 15 18.75 15H11.25C10.9185 15 10.6005 15.1317 10.3661 15.3661C10.1317 15.6005 10 15.9185 10 16.25ZM10 23.75C10 24.0815 10.1317 24.3995 10.3661 24.6339C10.6005 24.8683 10.9185 25 11.25 25H18.75C19.0815 25 19.3995 24.8683 19.6339 24.6339C19.8683 24.3995 20 24.0815 20 23.75C20 23.4185 19.8683 23.1005 19.6339 22.8661C19.3995 22.6317 19.0815 22.5 18.75 22.5H11.25C10.9185 22.5 10.6005 22.6317 10.3661 22.8661C10.1317 23.1005 10 23.4185 10 23.75ZM6.25 17.5C6.58152 17.5 6.89946 17.3683 7.13388 17.1339C7.3683 16.8995 7.5 16.5815 7.5 16.25C7.5 15.9185 7.3683 15.6005 7.13388 15.3661C6.89946 15.1317 6.58152 15 6.25 15C5.91848 15 5.60054 15.1317 5.36612 15.3661C5.1317 15.6005 5 15.9185 5 16.25C5 16.5815 5.1317 16.8995 5.36612 17.1339C5.60054 17.3683 5.91848 17.5 6.25 17.5ZM6.25 25C6.58152 25 6.89946 24.8683 7.13388 24.6339C7.3683 24.3995 7.5 24.0815 7.5 23.75C7.5 23.4185 7.3683 23.1005 7.13388 22.8661C6.89946 22.6317 6.58152 22.5 6.25 22.5C5.91848 22.5 5.60054 22.6317 5.36612 22.8661C5.1317 23.1005 5 23.4185 5 23.75C5 24.0815 5.1317 24.3995 5.36612 24.6339C5.60054 24.8683 5.91848 25 6.25 25Z" fill="white"/>
</svg>
