<svg width="50" height="50" viewBox="0 0 50 50" fill="none" xmlns="http://www.w3.org/2000/svg">
<path d="M26.7884 1.60663C26.5618 1.35743 26.2858 1.15832 25.9778 1.02206C25.6698 0.885813 25.3368 0.81543 25 0.81543C24.6633 0.81543 24.3302 0.885813 24.0222 1.02206C23.7143 1.15832 23.4382 1.35743 23.2117 1.60663L1.46169 25.7733C1.14096 26.1191 0.928433 26.5512 0.850294 27.0163C0.772155 27.4814 0.831822 27.9592 1.02194 28.3909C1.21206 28.8225 1.52432 29.189 1.92023 29.4453C2.31614 29.7016 2.77839 29.8365 3.25002 29.8333H8.08335V46.75C8.08335 47.3909 8.33797 48.0056 8.79118 48.4588C9.24439 48.912 9.85908 49.1666 10.5 49.1666H39.5C40.141 49.1666 40.7556 48.912 41.2089 48.4588C41.6621 48.0056 41.9167 47.3909 41.9167 46.75V29.8333H46.75C47.391 29.8333 48.0056 29.5787 48.4589 29.1255C48.9121 28.6723 49.1667 28.0576 49.1667 27.4166C49.1712 26.8094 48.9468 26.2227 48.5384 25.7733L26.7884 1.60663Z" fill="url(#paint0_linear_385_418)"/>
<path d="M14.2192 28.1421C14.3502 27.1006 15.2231 26.487 16.2705 26.4173C17.7555 26.3184 20.4343 26.2084 25 26.2084C29.5657 26.2084 32.2445 26.3184 33.7295 26.4173C34.7769 26.487 35.6498 27.1006 35.7808 28.1421C35.8366 28.5861 35.875 29.1426 35.875 29.8334C35.875 30.5242 35.8366 31.0806 35.7808 31.5247C35.6498 32.5661 34.7769 33.1798 33.7295 33.2495C32.2445 33.3483 29.5657 33.4584 25 33.4584C20.4343 33.4584 17.7555 33.3483 16.2705 33.2495C15.2231 33.1798 14.3502 32.5661 14.2192 31.5247C14.1634 31.0806 14.125 30.5242 14.125 29.8334C14.125 29.1426 14.1634 28.5861 14.2192 28.1421Z" fill="#0067AC"/>
<path d="M26.6913 19.0526C27.7328 19.1836 28.3464 20.0565 28.4161 21.1038C28.5149 22.5889 28.625 25.2677 28.625 29.8334C28.625 34.399 28.5149 37.0778 28.4161 38.5629C28.3464 39.6103 27.7328 40.4831 26.6913 40.6141C26.2472 40.67 25.6908 40.7084 25 40.7084C24.3092 40.7084 23.7528 40.67 23.3087 40.6141C22.2672 40.4831 21.6536 39.6103 21.5839 38.5629C21.4851 37.0778 21.375 34.399 21.375 29.8334C21.375 25.2677 21.4851 22.5889 21.5839 21.1038C21.6536 20.0565 22.2672 19.1836 23.3087 19.0526C23.7528 18.9968 24.3092 18.9584 25 18.9584C25.6908 18.9584 26.2472 18.9968 26.6913 19.0526Z" fill="#0067AC"/>
<defs>
<linearGradient id="paint0_linear_385_418" x1="24.9918" y1="0.815429" x2="43.1251" y2="89.0418" gradientUnits="userSpaceOnUse">
<stop stop-color="#95A5FF"/>
<stop offset="1" stop-color="#797BC5"/>
</linearGradient>
</defs>
</svg>
