<svg width="52" height="57" viewBox="0 0 52 57" fill="none" xmlns="http://www.w3.org/2000/svg">
<path fill-rule="evenodd" clip-rule="evenodd" d="M25.2266 5.0106C23.5009 5.05996 22.3927 6.34292 22.3749 8.06921C22.3731 8.24462 22.3721 8.43067 22.3721 8.62791C22.3721 8.82514 22.3731 9.01119 22.3749 9.18661C22.3876 10.4209 22.9578 11.4285 23.9125 11.9207C24.2582 12.0989 24.5259 12.409 24.5075 12.7975C24.4883 13.2037 24.1713 13.5578 23.7682 13.6109C20.645 14.0222 17.79 15.2848 15.444 17.1581C15.0908 17.4401 14.5596 17.4152 14.2253 17.1109C13.9115 16.8253 13.8826 16.3815 14.0028 15.9745C14.3 14.9674 13.9862 13.8772 13.1388 13.0122C13.0161 12.8869 12.8852 12.7546 12.7457 12.6151C12.6063 12.4757 12.474 12.3448 12.3487 12.2221C11.1154 11.014 9.42463 10.8904 8.16949 12.0757C7.99642 12.2392 7.81176 12.4185 7.6151 12.6151C7.41844 12.8118 7.23914 12.9965 7.0757 13.1695C5.89036 14.4247 6.01394 16.1155 7.22201 17.3487C7.34477 17.4741 7.47563 17.6063 7.6151 17.7458C7.75457 17.8852 7.88681 18.0161 8.01213 18.1389C8.86136 18.9707 9.92753 19.2884 10.919 19.0185C11.3607 18.8983 11.8393 18.9272 12.1475 19.2656C12.4636 19.6126 12.5038 20.1612 12.2304 20.5427C10.5794 22.8459 9.492 25.5805 9.16975 28.5448C9.11405 29.0571 8.70246 29.4662 8.18759 29.4895C8.11737 29.4926 8.04792 29.4958 7.97921 29.499C7.50019 29.5212 7.08914 29.1888 6.84525 28.7759C6.32997 27.9036 5.36085 27.387 4.18661 27.3749C4.01119 27.3731 3.82514 27.3721 3.62791 27.3721C3.43067 27.3721 3.24462 27.3731 3.0692 27.3749C1.34292 27.3927 0.0599561 28.5009 0.0105964 30.2266C0.00379042 30.4645 0 30.7219 0 31C0 31.2781 0.00379047 31.5355 0.0105964 31.7734C0.0599563 33.4991 1.34292 34.6073 3.06921 34.6251C3.24463 34.6269 3.43067 34.6279 3.62791 34.6279C3.82514 34.6279 4.01119 34.6269 4.18661 34.6251C5.36085 34.613 6.32997 34.0964 6.84525 33.2241C7.08914 32.8112 7.50019 32.4788 7.97921 32.501C8.10391 32.5068 8.23108 32.5125 8.36077 32.5183C8.84863 32.5398 9.248 32.9094 9.33381 33.3901C9.83277 36.1856 11.0178 38.7434 12.7086 40.8832C13.0251 41.2838 13.0218 41.8573 12.6792 42.2356C12.536 42.3936 12.3986 42.5461 12.2666 42.693C11.9383 43.0584 11.3969 43.1122 10.9231 42.9825C9.9305 42.7107 8.86267 43.0281 8.01234 43.8611C7.88702 43.9838 7.75478 44.1147 7.61531 44.2542C7.47584 44.3936 7.34498 44.5259 7.22222 44.6512C6.01415 45.8845 5.89057 47.5753 7.07591 48.8304C7.23934 49.0035 7.41865 49.1881 7.61531 49.3848C7.81197 49.5815 7.99663 49.7608 8.1697 49.9242C9.42483 51.1095 11.1156 50.986 12.3489 49.7779C12.4742 49.6551 12.6065 49.5243 12.7459 49.3848C12.8854 49.2453 13.0163 49.1131 13.139 48.9878C13.972 48.1374 14.2894 47.0696 14.0176 46.077C13.8879 45.6032 13.9417 45.0618 14.3071 44.7335C14.4817 44.5767 14.6641 44.4121 14.8544 44.2395C15.2183 43.9094 15.766 43.8924 16.1657 44.1781C18.3231 45.7202 20.8577 46.7683 23.6043 47.1574C24.1006 47.2277 24.49 47.6319 24.5141 48.1326C24.5284 48.4295 24.5428 48.7115 24.5571 48.9792C24.5834 49.4698 24.2386 49.8906 23.8118 50.1339C22.9178 50.6436 22.3872 51.6231 22.3749 52.8134C22.3731 52.9888 22.3721 53.1749 22.3721 53.3721C22.3721 53.5693 22.3731 53.7554 22.3749 53.9308C22.3927 55.6571 23.5009 56.94 25.2266 56.9894C25.4645 56.9962 25.7219 57 26 57C26.2781 57 26.5355 56.9962 26.7734 56.9894C28.4991 56.94 29.6073 55.6571 29.6251 53.9308C29.6269 53.7554 29.6279 53.5693 29.6279 53.3721C29.6279 53.1749 29.6269 52.9888 29.6251 52.8134C29.6128 51.6231 29.0822 50.6436 28.1882 50.1339C27.7614 49.8906 27.4166 49.4698 27.4429 48.9792C27.4572 48.7115 27.4716 48.4295 27.4859 48.1326C27.51 47.6319 27.8994 47.2277 28.3957 47.1574C31.1424 46.7683 33.6769 45.7202 35.8343 44.1781C36.234 43.8924 36.7817 43.9094 37.1457 44.2395C37.336 44.412 37.5183 44.5766 37.6928 44.7334C38.0583 45.0617 38.1121 45.6031 37.9823 46.0769C37.7106 47.0695 38.028 48.1373 38.8609 48.9877C38.9837 49.113 39.1145 49.2452 39.254 49.3847C39.3935 49.5242 39.5257 49.655 39.6511 49.7778C40.8843 50.9859 42.5751 51.1094 43.8303 49.9241C44.0033 49.7607 44.188 49.5814 44.3847 49.3847C44.5813 49.188 44.7606 49.0034 44.9241 48.8303C46.1094 47.5752 45.9858 45.8844 44.7777 44.6511C44.655 44.5258 44.5241 44.3935 44.3847 44.2541C44.2452 44.1146 44.1129 43.9837 43.9876 43.861C43.1373 43.028 42.0695 42.7106 41.0769 42.9824C40.603 43.1121 40.0617 43.0583 39.7333 42.6929C39.6014 42.546 39.464 42.3936 39.3209 42.2356C38.9782 41.8572 38.9749 41.2837 39.2914 40.8832C40.9931 38.7295 42.1826 36.1523 42.6758 33.3356C42.7599 32.8557 43.1563 32.4855 43.6429 32.4605C43.7574 32.4546 43.8695 32.4487 43.9792 32.4429C44.4698 32.4166 44.8906 32.7614 45.1339 33.1882C45.6436 34.0822 46.6231 34.6128 47.8134 34.6251C47.9888 34.6269 48.1749 34.6279 48.3721 34.6279C48.5693 34.6279 48.7554 34.6269 48.9308 34.6251C50.6571 34.6073 51.94 33.4991 51.9894 31.7734C51.9962 31.5355 52 31.2781 52 31C52 30.7219 51.9962 30.4645 51.9894 30.2266C51.94 28.5009 50.6571 27.3927 48.9308 27.3749C48.7554 27.3731 48.5693 27.3721 48.3721 27.3721C48.1749 27.3721 47.9888 27.3731 47.8134 27.3749C46.6231 27.3872 45.6436 27.9178 45.1339 28.8118C44.8906 29.2386 44.4697 29.5834 43.9791 29.5571C43.924 29.5542 43.8683 29.5512 43.812 29.5483C43.2985 29.5214 42.8901 29.1116 42.8362 28.6002C42.5215 25.6146 41.4309 22.8603 39.7696 20.5427C39.4962 20.1613 39.5364 19.6127 39.8525 19.2657C40.1607 18.9273 40.6392 18.8984 41.0809 19.0186C42.0724 19.2885 43.1386 18.9709 43.9878 18.139C44.1131 18.0162 44.2454 17.8854 44.3849 17.7459C44.5243 17.6064 44.6552 17.4742 44.778 17.3488C45.986 16.1156 46.1096 14.4248 44.9243 13.1696C44.7608 12.9966 44.5815 12.8119 44.3849 12.6152C44.1882 12.4186 44.0035 12.2393 43.8305 12.0758C42.5753 10.8905 40.8845 11.0141 39.6513 12.2222C39.5259 12.3449 39.3937 12.4758 39.2542 12.6152C39.1148 12.7547 38.9839 12.887 38.8611 13.0123C38.0137 13.8774 37.6999 14.9676 37.9972 15.9746C38.1173 16.3816 38.0885 16.8254 37.7747 17.111C37.4404 17.4153 36.9093 17.4402 36.5561 17.1581C34.2101 15.2849 31.3551 14.0222 28.2318 13.6109C27.8287 13.5578 27.5117 13.2037 27.4925 12.7975C27.4741 12.409 27.7418 12.0989 28.0875 11.9207C29.0422 11.4285 29.6124 10.4209 29.6251 9.18661C29.6269 9.01119 29.6279 8.82514 29.6279 8.62791C29.6279 8.43067 29.6269 8.24462 29.6251 8.0692C29.6073 6.34292 28.4991 5.05996 26.7734 5.0106C26.5355 5.00379 26.2781 5 26 5C25.7219 5 25.4645 5.00379 25.2266 5.0106Z" fill="url(#paint0_linear_79_555)"/>
<circle cx="21.5" cy="35" r="5" fill="#E66F42"/>
<circle cx="26" cy="23.5" r="3.5" fill="#E66F42"/>
<circle cx="33.5" cy="33" r="3" fill="#E66F42"/>
<defs>
<linearGradient id="paint0_linear_79_555" x1="26" y1="5" x2="26" y2="57" gradientUnits="userSpaceOnUse">
<stop stop-color="#797BC5"/>
<stop offset="1" stop-color="#95A5FF"/>
</linearGradient>
</defs>
</svg>
