<svg width="44" height="44" viewBox="0 0 44 44" fill="none" xmlns="http://www.w3.org/2000/svg">
<path d="M0.749294 4.7747C0.94494 3.12783 1.94147 1.76065 3.55698 1.38572C6.2562 0.759278 11.6604 0 22 0C32.3395 0 37.7438 0.759277 40.443 1.38572C42.0585 1.76065 43.0551 3.12783 43.2507 4.7747C43.5727 7.48488 44 12.1151 44 17.6C44 18.0339 43.9973 18.4625 43.9922 18.8851C43.8827 27.9909 39.0594 36.4121 31.0622 40.7677C27.7277 42.5838 24.3682 44 22 44C19.6318 44 16.2723 42.5838 12.9378 40.7677C4.94055 36.4121 0.117303 27.9909 0.00775924 18.8851C0.00267432 18.4625 0 18.0339 0 17.6C0 12.1151 0.427329 7.48488 0.749294 4.7747Z" fill="url(#paint0_linear_385_419)"/>
<path d="M8.96341 17.4004C9.12839 16.3638 10.0091 15.7541 11.056 15.6778C12.7748 15.5524 16.0811 15.4 21.9998 15.4C27.9185 15.4 31.2248 15.5524 32.9436 15.6778C33.9905 15.7541 34.8712 16.3638 35.0362 17.4004C35.1296 17.9875 35.1998 18.7709 35.1998 19.8C35.1998 20.829 35.1296 21.6124 35.0362 22.1995C34.8712 23.2361 33.9905 23.8458 32.9436 23.9222C31.2248 24.0476 27.9185 24.2 21.9998 24.2C16.0811 24.2 12.7748 24.0476 11.056 23.9222C10.0091 23.8458 9.12839 23.2362 8.96341 22.1995C8.86997 21.6124 8.7998 20.829 8.7998 19.8C8.7998 18.7709 8.86997 17.9875 8.96341 17.4004Z" fill="#0067AC"/>
<path d="M24.3995 6.76358C25.4361 6.92856 26.0457 7.80928 26.1221 8.85614C26.2475 10.575 26.3999 13.8813 26.3999 19.8C26.3999 25.7187 26.2475 29.025 26.1221 30.7438C26.0457 31.7907 25.4361 32.6714 24.3995 32.8364C23.8124 32.9298 23.0289 33 21.9999 33C20.9709 33 20.1874 32.9298 19.6003 32.8364C18.5637 32.6714 17.9541 31.7907 17.8777 30.7438C17.7523 29.025 17.5999 25.7187 17.5999 19.8C17.5999 13.8813 17.7523 10.575 17.8777 8.85614C17.9541 7.80928 18.5637 6.92856 19.6003 6.76358C20.1874 6.67014 20.9709 6.59998 21.9999 6.59998C23.0289 6.59998 23.8124 6.67014 24.3995 6.76358Z" fill="#0067AC"/>
<defs>
<linearGradient id="paint0_linear_385_419" x1="22" y1="0" x2="22" y2="44" gradientUnits="userSpaceOnUse">
<stop stop-color="#95A5FF"/>
<stop offset="1" stop-color="#8B91DF"/>
</linearGradient>
</defs>
</svg>
