<svg width="78" height="70" viewBox="0 0 78 70" fill="none" xmlns="http://www.w3.org/2000/svg">
<path d="M73.2755 38.1947C77.0685 32.0252 78.3026 24.3818 76.6528 17.275C73.128 1.0864 53.6091 -5.52864 41.4509 5.31997C40.4881 6.17341 39.6317 7.15733 38.6842 8.1384C37.7367 7.15735 36.8804 6.17341 35.9175 5.31997C23.7593 -5.52864 4.2405 1.0864 0.71565 17.275C-0.934119 24.3818 0.29987 32.0252 4.09297 38.1947C11.4274 50.1433 23.7258 59.1696 35.1489 67.4379C37.2572 68.964 40.1112 68.964 42.2196 67.4379C53.6427 59.1696 65.9409 50.1432 73.2755 38.1947Z" fill="url(#paint0_linear_79_498)"/>
<path fill-rule="evenodd" clip-rule="evenodd" d="M2.92001 36.079H20.263C20.9468 36.079 21.5832 35.7296 21.9503 35.1527L26.5717 27.8906L36.9255 47.0052C37.2901 47.6783 38.0068 48.0842 38.7716 48.0507C39.5363 48.0173 40.2148 47.5502 40.5192 46.8479L50.7329 23.2778L56.2165 34.9306C56.5464 35.6316 57.2515 36.079 58.0262 36.079H74.4482C75.0891 34.7899 75.627 33.4513 76.0595 32.079H59.2954L52.4674 17.5695C52.1328 16.8584 51.4127 16.4092 50.6268 16.4213C49.841 16.4335 49.1351 16.9047 48.8227 17.6259L38.484 41.4842L28.469 22.9948C28.1314 22.3716 27.4891 21.9735 26.7807 21.9486C26.0723 21.9237 25.4036 22.2756 25.0231 22.8736L19.1651 32.079H1.30859C1.7411 33.4513 2.2791 34.7899 2.92001 36.079Z" fill="#E66F42"/>
<defs>
<linearGradient id="paint0_linear_79_498" x1="38.6842" y1="0" x2="38.6842" y2="70" gradientUnits="userSpaceOnUse">
<stop stop-color="#95A5FF"/>
<stop offset="1" stop-color="#8B91DF"/>
</linearGradient>
</defs>
</svg>
