<svg width="70" height="70" viewBox="0 0 70 70" fill="none" xmlns="http://www.w3.org/2000/svg">
<path fill-rule="evenodd" clip-rule="evenodd" d="M26.648 16.2143C26.2125 14.5437 26.9548 13.0263 28.616 12.5565C28.7433 12.5205 28.8767 12.484 29.0164 12.4469C29.1561 12.4098 29.2901 12.3755 29.4185 12.3436C31.0941 11.928 32.491 12.8779 32.9409 14.5446C32.9597 14.6143 32.9789 14.6857 32.9983 14.7589C33.0177 14.8321 33.0365 14.9036 33.0547 14.9734C33.3514 16.1114 33.1015 17.1783 32.387 17.8914C32.1346 18.1432 31.9825 18.481 32.0903 18.8209C32.2086 19.1942 32.5913 19.4458 32.9799 19.3969C35.7509 19.0477 38.4846 19.4796 40.9258 20.5443C41.3232 20.7177 41.8096 20.5638 42.0448 20.1996C42.2549 19.8742 42.1894 19.4792 42.0038 19.1393C41.5298 18.2709 41.5786 17.1962 42.1545 16.1945C42.1904 16.1319 42.2274 16.0679 42.2655 16.0024C42.3035 15.9369 42.3408 15.8731 42.3772 15.8109C43.2505 14.3217 44.8484 13.7735 46.3552 14.6161C46.4707 14.6806 46.5909 14.7491 46.7159 14.8217C46.8409 14.8942 46.9599 14.9647 47.0732 15.0329C48.5519 15.9239 48.868 17.5834 48.0076 19.08C47.9717 19.1426 47.9347 19.2066 47.8967 19.2721C47.8586 19.3376 47.8214 19.4014 47.7849 19.4637C47.2106 20.443 46.3228 21.0154 45.3537 21.0529C44.9366 21.069 44.5316 21.2168 44.3392 21.5873C44.1318 21.9865 44.2294 22.5048 44.5756 22.7921C46.5094 24.3973 48.0614 26.4937 49.0181 28.9572C49.2043 29.4365 49.7038 29.7278 50.207 29.6225C50.2299 29.6177 50.2527 29.613 50.2754 29.6082C50.7332 29.5127 51.0459 29.1059 51.1913 28.6614C51.4895 27.7496 52.271 27.0549 53.3564 26.7619C53.4261 26.7431 53.4975 26.724 53.5707 26.7046C53.6439 26.6852 53.7154 26.6664 53.7852 26.6482C55.4558 26.2127 56.9732 26.9549 57.4429 28.6162C57.4789 28.7435 57.5155 28.8769 57.5526 29.0166C57.5896 29.1563 57.624 29.2903 57.6559 29.4187C58.0714 31.0943 57.1216 32.4912 55.4548 32.9411C55.3852 32.9599 55.3138 32.979 55.2406 32.9985C55.1674 33.0179 55.0959 33.0367 55.0261 33.0549C53.938 33.3385 52.9149 33.1225 52.2039 32.4784C51.8573 32.1645 51.384 31.9662 50.939 32.1101C50.8679 32.1332 50.7955 32.1565 50.7219 32.1802C50.2582 32.3294 49.9703 32.7888 50.0093 33.2744C50.2101 35.7695 49.7839 38.217 48.8399 40.4293C48.6396 40.8988 48.7895 41.4521 49.2176 41.7302C49.3544 41.8191 49.4865 41.9053 49.6143 41.9889C50.0055 42.245 50.5143 42.1786 50.9313 41.9671C51.7869 41.5334 52.8306 41.5948 53.8053 42.1551L53.8976 42.2083L53.9973 42.266C54.0628 42.3041 54.1267 42.3413 54.1889 42.3778C55.6781 43.2511 56.2262 44.849 55.3837 46.3558C55.3191 46.4713 55.2507 46.5915 55.1781 46.7165C55.1055 46.8415 55.0351 46.9605 54.9668 47.0738C54.0758 48.5525 52.4164 48.8686 50.9197 48.0082C50.8572 47.9723 50.7932 47.9353 50.7276 47.8973C50.6621 47.8592 50.5983 47.822 50.5361 47.7855C49.5661 47.2166 48.9953 46.3404 48.9481 45.3821C48.9251 44.915 48.7307 44.44 48.3142 44.2272C48.1471 44.1418 47.9733 44.0525 47.7925 43.9591C47.3559 43.7337 46.8225 43.8579 46.5072 44.2348C45.017 46.0164 43.1083 47.4706 40.8787 48.4289C40.4182 48.6268 40.1453 49.1171 40.2502 49.6073C40.3 49.8404 40.347 50.0631 40.3914 50.2756C40.4869 50.7335 40.8939 51.0463 41.3385 51.1916C42.2504 51.4897 42.9453 52.2712 43.2384 53.3569C43.2572 53.4265 43.2763 53.4979 43.2957 53.5712C43.3152 53.6444 43.334 53.7159 43.3521 53.7857C43.7877 55.4562 43.0454 56.9737 41.3841 57.4434C41.2568 57.4794 41.1234 57.516 40.9837 57.553C40.844 57.5901 40.7101 57.6245 40.5816 57.6563C38.906 58.0719 37.5091 57.122 37.0592 55.4553C37.0404 55.3857 37.0213 55.3143 37.0019 55.241C36.9824 55.1678 36.9636 55.0963 36.9454 55.0265C36.6618 53.9387 36.8777 52.9157 37.5215 52.2047C37.8354 51.8581 38.0336 51.3849 37.8897 50.94C37.8228 50.7332 37.7531 50.5164 37.6808 50.289C37.5288 49.8113 37.0488 49.5208 36.5507 49.5771C34.1396 49.8501 31.7612 49.5335 29.584 48.7251C29.1234 48.5541 28.5986 48.7107 28.3312 49.1229C28.2204 49.2937 28.1137 49.4575 28.0108 49.6145C27.7547 50.0058 27.8212 50.5146 28.0327 50.9317C28.4666 51.7873 28.4052 52.831 27.8449 53.8058C27.8089 53.8683 27.7719 53.9323 27.7339 53.9978C27.6959 54.0634 27.6586 54.1272 27.6221 54.1894C26.7488 55.6786 25.1509 56.2267 23.6441 55.3842C23.5286 55.3196 23.4085 55.2512 23.2835 55.1786C23.1585 55.106 23.0394 55.0356 22.9261 54.9673C21.4474 54.0764 21.1313 52.4169 21.9917 50.9202C22.0277 50.8577 22.0647 50.7937 22.1027 50.7282C22.1407 50.6627 22.178 50.5988 22.2145 50.5366C22.7833 49.5667 23.6595 48.9959 24.6177 48.9486C25.0848 48.9256 25.5597 48.7311 25.7725 48.3146C25.8419 48.1788 25.9139 48.0386 25.9886 47.8937C26.2224 47.44 26.0783 46.8851 25.6716 46.5767C23.7676 45.133 22.1923 43.2343 21.1299 40.9874C20.9211 40.546 20.4407 40.2911 19.9636 40.3951C19.8731 40.4149 19.7841 40.4342 19.6964 40.4532C19.2504 40.5496 18.9441 40.943 18.796 41.3746C18.4893 42.2689 17.7141 42.9494 16.6428 43.2386C16.5732 43.2574 16.5017 43.2765 16.4285 43.2959C16.3553 43.3153 16.2838 43.3341 16.214 43.3523C14.5435 43.7878 13.026 43.0455 12.5563 41.3843C12.5203 41.257 12.4837 41.1236 12.4467 40.9839C12.4096 40.8442 12.3752 40.7102 12.3434 40.5818C11.9278 38.9062 12.8777 37.5093 14.5444 37.0594C14.614 37.0406 14.6854 37.0215 14.7587 37.002C14.8319 36.9826 14.9034 36.9638 14.9732 36.9456C16.0469 36.6657 17.0575 36.8724 17.7672 37.4969C18.1097 37.7983 18.5707 37.9881 19.0058 37.8508C19.041 37.8396 19.0765 37.8285 19.1121 37.8172C19.6037 37.6625 19.8963 37.1617 19.8219 36.6517C19.4428 34.0545 19.7532 31.4822 20.6315 29.1442C20.7897 28.7232 20.6176 28.2248 20.2396 27.981C19.8888 27.7546 19.4639 27.827 19.0936 28.0199C18.2333 28.4683 17.1782 28.4114 16.1936 27.8454C16.1311 27.8095 16.0671 27.7725 16.0016 27.7345C15.9361 27.6964 15.8722 27.6592 15.81 27.6227C14.3208 26.7494 13.7727 25.1515 14.6152 23.6447C14.6798 23.5292 14.7482 23.409 14.8208 23.284C14.8934 23.159 14.9638 23.04 15.0321 22.9267C15.9231 21.448 17.5825 21.1319 19.0792 21.9923C19.1417 22.0282 19.2057 22.0652 19.2712 22.1032C19.3368 22.1413 19.4006 22.1785 19.4628 22.215C20.4592 22.7993 21.0343 23.708 21.0535 24.6968C21.061 25.0841 21.2 25.4597 21.5439 25.6382C21.9289 25.838 22.4278 25.7304 22.6872 25.3827C24.2793 23.2483 26.439 21.5184 29.0181 20.4481C29.38 20.2979 29.5878 19.8894 29.5054 19.5063C29.4305 19.1577 29.131 18.9396 28.7869 18.8458C27.8135 18.5804 27.0681 17.7779 26.7618 16.643C26.743 16.5734 26.7238 16.502 26.7044 16.4288C26.685 16.3555 26.6662 16.2841 26.648 16.2143Z" fill="#9199A7"/>
<path fill-rule="evenodd" clip-rule="evenodd" d="M0 35C0 54.33 15.67 70 35 70C54.33 70 70 54.33 70 35C70 15.67 54.33 0 35 0C15.67 0 0 15.67 0 35ZM8.33334 35C8.33334 49.7276 20.2724 61.6667 35 61.6667C41.1144 61.6667 46.7482 59.6088 51.2465 56.1479C46.3429 51.327 37.5582 42.6767 32.2039 37.3223C27.0194 32.1379 18.7449 23.7374 13.8487 18.758C10.3898 23.2556 8.33334 28.8876 8.33334 35ZM19.6507 13.1911C23.9909 10.1308 29.2856 8.33333 35 8.33333C49.7276 8.33333 61.6667 20.2724 61.6667 35C61.6667 40.7165 59.8679 46.0129 56.8056 50.354C51.9629 45.4285 43.408 36.7413 38.0964 31.4298C32.9529 26.2863 24.6439 18.1013 19.6507 13.1911Z" fill="#E66F42"/>
</svg>
